<?xml version="1.0" encoding="UTF-8"?>
<svg xmlns="http://www.w3.org/2000/svg" xmlns:xlink="http://www.w3.org/1999/xlink" id="Ebene_1" data-name="Ebene 1" viewBox="0 0 229.56 236.89">
  <defs>
    <style>
      .cls-1, .cls-2, .cls-3, .cls-4 {
        fill: none;
      }

      .cls-5 {
        clip-path: url(#clippath);
      }

      .cls-6 {
        fill: #019344;
      }

      .cls-7 {
        fill: #fff;
      }

      .cls-8 {
        fill: #d02c37;
      }

      .cls-9 {
        fill: #db0c2b;
      }

      .cls-10 {
        fill: #1e1e1c;
      }

      .cls-2 {
        stroke-dasharray: 0 0 0 8.73;
      }

      .cls-2, .cls-3, .cls-4 {
        stroke: #fff;
        stroke-linecap: round;
        stroke-linejoin: round;
        stroke-width: 3px;
      }

      .cls-11 {
        clip-path: url(#clippath-1);
      }

      .cls-12 {
        clip-path: url(#clippath-4);
      }

      .cls-13 {
        clip-path: url(#clippath-3);
      }

      .cls-14 {
        clip-path: url(#clippath-2);
      }

      .cls-15 {
        clip-path: url(#clippath-5);
      }

      .cls-3 {
        stroke-dasharray: 0 0 0 9.2;
      }
    </style>
    <clipPath id="clippath">
      <polygon class="cls-1" points="65.46 77.2 88.73 182.61 179.02 164.13 155.74 58.72 65.46 77.2"></polygon>
    </clipPath>
    <clipPath id="clippath-1">
      <polygon class="cls-1" points="65.46 77.2 88.73 182.61 179.02 164.13 155.74 58.72 65.46 77.2"></polygon>
    </clipPath>
    <clipPath id="clippath-2">
      <polygon class="cls-1" points="65.46 77.2 88.73 182.61 179.02 164.13 155.74 58.72 65.46 77.2"></polygon>
    </clipPath>
    <clipPath id="clippath-3">
      <polygon class="cls-1" points="61.66 76.24 84.93 181.65 175.22 163.17 151.95 57.76 61.66 76.24"></polygon>
    </clipPath>
    <clipPath id="clippath-4">
      <polygon class="cls-1" points="61.66 76.24 84.93 181.65 175.22 163.17 151.95 57.76 61.66 76.24"></polygon>
    </clipPath>
    <clipPath id="clippath-5">
      <polygon class="cls-1" points="61.66 76.24 84.93 181.65 175.22 163.17 151.95 57.76 61.66 76.24"></polygon>
    </clipPath>
  </defs>
  <path class="cls-9" d="m160.59,217.44c53.43-23.79,77.46-86.39,53.67-139.82C190.48,24.19,127.88.16,74.44,23.94,21.01,47.73-3.02,110.34,20.77,163.77c23.79,53.43,86.39,77.46,139.82,53.67"></path>
  <path class="cls-3" d="m145.9,210.01c44-13.92,71.61-58.27,64.13-104.28"></path>
  <path class="cls-3" d="m206.83,92.32c-13.92-44-58.27-71.61-104.28-64.13"></path>
  <path class="cls-3" d="m89.14,31.38c-44.01,13.92-71.61,58.27-64.13,104.28"></path>
  <path class="cls-3" d="m28.2,149.07c13.92,44.01,58.27,71.61,104.28,64.13"></path>
  <path class="cls-4" d="m137,212.35h0M25.86,140.18h0M98.04,29.03h0m111.14,72.18h0"></path>
  <path class="cls-2" d="m137.44,172.58c23.78-9.1,38.58-33.53,35.18-59.14"></path>
  <path class="cls-2" d="m169.4,100.78c-9.1-23.78-33.53-38.58-59.14-35.18"></path>
  <path class="cls-2" d="m97.6,68.81c-23.78,9.1-38.58,33.53-35.18,59.14"></path>
  <path class="cls-2" d="m65.63,140.61c9.1,23.78,33.53,38.58,59.14,35.18"></path>
  <path class="cls-4" d="m129.07,175.05h0m-65.91-42.8h0m42.8-65.91h0m65.91,42.8h0"></path>
  <path class="cls-7" d="m51.46,157.43c1.69-.75,2.44-2.73,1.69-4.41-.75-1.69-2.73-2.45-4.41-1.7-1.69.75-2.45,2.73-1.69,4.42.75,1.69,2.73,2.45,4.41,1.69"></path>
  <path class="cls-7" d="m190.84,97.95c1.69-.75,2.44-2.73,1.69-4.41-.75-1.69-2.73-2.45-4.41-1.7-1.69.75-2.45,2.73-1.69,4.42.75,1.69,2.73,2.44,4.41,1.69"></path>
  <path class="cls-7" d="m35.58,105.19c.26-1.37,1.31-2.18,3.16-2.5,1.57-.26,3.62-.17,5.86.26,1.94.36,3.54.9,4.81,1.66,1.6.93,2.32,2.16,2.06,3.51-.27,1.48-1.25,2.27-3.13,2.57-1.68.26-3.75.23-5.61-.13-1.85-.35-3.74-1.05-5.18-1.92-1.61-.99-2.24-2.06-1.98-3.45m6.07,11.23c2.41.46,4.79-.13,6.75-1.68,1.99-1.56,3.07-3.59,3.67-6.73.51-2.7.31-4.84-.56-6.59-1.08-2.13-3.36-3.74-5.98-4.24-5.19-.98-9.46,2.34-10.55,8.23-.52,2.72-.3,4.7.75,6.72,1.16,2.23,3.34,3.81,5.91,4.29"></path>
  <path class="cls-7" d="m41.3,147.05c-.38-1.73-.02-2.52,2.1-4.1,3.51-2.8,7.23-5.41,11.14-7.81,0-.12-.02-.24-.03-.37-3.93-1.32-8.01-2.44-12.24-3.33,3.75-2.68,7.69-5.17,11.82-7.45,0-.13-.01-.26-.02-.39-3.91-1.23-7.95-2.28-12.12-3.12-3.38-.64-5.38-1.83-5.6-3.69-.21.05-.41.1-.62.14.25,2.58.54,5.15.88,7.7.2-.04.39-.09.58-.13.03-1.56,1.35-2.99,3.11-3.34.7-.14,1.22-.12,2.15.07,1.51.32,3.01.67,4.49,1.04-2.62,1.57-5.16,3.23-7.63,4.96-.44.33-.62.43-.89.49-.53.13-.82-.22-.97-1.23-.02-.16-.04-.33-.07-.49-.19.05-.38.1-.57.14.46,3.31.99,6.59,1.6,9.84.18-.04.36-.08.54-.12-.12-1.61.4-2.42,2.59-3.93,2.14.43,4.25.93,6.32,1.48-2.35,1.55-4.62,3.18-6.82,4.88-.3.24-.58.39-.82.46-.49.12-.78-.22-.97-1.21-.03-.16-.06-.32-.09-.48-.18.04-.35.08-.53.12.68,3.5,1.43,6.96,2.28,10.4.16-.04.33-.07.49-.11-.04-.14-.07-.28-.11-.42"></path>
  <path class="cls-7" d="m70.64,56.2l5.25,7.74c1.24,1.79,1.12,2.4-.6,3.54l-.57.39.3.44,9.47-6.4-.31-.46-.57.39c-1.7,1.18-2.3,1.06-3.5-.77l-5.25-7.74c-1.24-1.79-1.14-2.4.58-3.53l.57-.39-.3-.44-9.46,6.42.3.44.57-.39c1.7-1.18,2.3-1.04,3.51.76"></path>
  <path class="cls-7" d="m90.11,43.22l1.18-.39c1.25-.42,1.98-.47,2.75-.19.92.3,1.68,1.17,2.07,2.37.38,1.12.34,2.24-.11,2.95-.39.61-1.2,1.18-2.28,1.54l-1.37.46-2.24-6.74Zm7.18,12.82l-.11.03c-2.09.72-2.67.44-3.33-1.61l-1.33-3.99,1.19-.41,6.16,5.67,6.99-2.33-.18-.51c-1.43.48-2.43.29-3.5-.73l-4.15-3.9c2.47-1.31,3.4-3.11,2.7-5.22-.51-1.52-1.84-2.52-3.39-2.59-1.27-.06-1.68.04-4.56,1l-12.25,4.08.17.5.71-.23c2.09-.72,2.67-.44,3.33,1.61l2.94,8.81c.71,2.04.4,2.61-1.69,3.28l-.71.23.18.51,11.02-3.68-.17-.5Z"></path>
  <path class="cls-7" d="m121.66,51.45c.69.63,1.01.94,1.39,1.23,1.49,1.13,3.32,1.88,5.32,2.15,4.07.53,6.8-.96,7.18-3.91.21-1.59-.31-2.93-1.53-3.88-.83-.65-2.5-1.4-4.27-1.93l-3.6-1.06c-1.77-.54-2.63-.87-3.29-1.29-.61-.38-.95-.99-.87-1.57.16-1.31,1.84-2.01,4.14-1.71,3.46.46,6.37,2.73,8.02,6.29l.45.07.71-5.42-.34-.05-2.81,1.62c-1.8-1.75-3.68-2.69-5.91-2.98-3.9-.52-6.99,1.25-7.38,4.17-.35,2.65,1.41,4.43,5.43,5.57l4.07,1.12c.86.25,2.21.74,2.77,1.04,1.05.53,1.48,1.12,1.38,1.91-.16,1.31-1.64,1.83-4.15,1.51-2.33-.3-4.2-1.24-6.08-2.99-1.35-1.25-2.35-2.6-2.99-4.08l-.5-.07-.76,5.91.49.07,3.11-1.71Z"></path>
  <path class="cls-7" d="m142.91,46.09l-3.04,8.11c-.7,1.89-1.24,2.13-3.17,1.38l-.65-.24-.18.47,10.7,4.03.18-.47-.65-.24c-1.93-.72-2.2-1.24-1.46-3.13l3.06-8.11c.69-1.88,1.25-2.12,3.16-1.37l.65.25.18-.47-10.71-4.04-.18.47.65.24c1.95.71,2.2,1.24,1.46,3.13"></path>
  <path class="cls-7" d="m158.63,51.75l.15.68-4.63,6.34c-1.47,1.99-3.38,2.4-5.13,1.1l-.29.4,5.94,4.35.29-.4c-1.68-1.25-1.79-3.06-.29-5.06l4.32-5.91,3.32,17.56.4.28,6.22-8.52c1.44-2.02,3.38-2.4,5.13-1.1l.3-.4-5.94-4.35-.29.4c1.66,1.26,1.79,3.06.29,5.06l-2.09,2.85-2.22-11.46-6.73-4.91-.3.4.07.05c.81.59,1.04,1,1.48,2.65"></path>
  <path class="cls-7" d="m184.24,75.84c-.28,1.43-1.43,2.77-3.92,4.58-2.5,1.81-4.66,2.6-5.98,2.19-.85-.27-1.31-.69-2.51-2.36l-.81-1.1,10.92-7.91,1.01,1.38c1.23,1.69,1.47,2.32,1.3,3.22m-.18-2.53l-6.58-9.06-.4.29.4.57c1.23,1.66,1.15,2.24-.5,3.41l-7.01,5.09c-1.62,1.2-2.21,1.09-3.4-.59l-.4-.57-.41.3,6.36,8.76c1.41,1.95,2.86,3.46,3.86,4.05,2.28,1.31,5.38,1.13,7.6-.46,2.28-1.66,3.45-4.68,2.82-7.31-.33-1.4-.93-2.54-2.33-4.48"></path>
  <path class="cls-7" d="m59.38,174.23l6.55-5.67c1.51-1.33,2.1-1.26,3.44.3l.44.53.38-.32-7.47-8.65-.38.32.46.53c1.37,1.55,1.34,2.13-.2,3.45l-6.56,5.65c-1.51,1.34-2.11,1.28-3.44-.3l-.45-.53-.37.32,7.47,8.65.38-.32-.46-.53c-1.37-1.55-1.34-2.13.2-3.43"></path>
  <path class="cls-7" d="m71.97,173.92c.78-1.07,2.58-.88,4.46.49,2.82,2.06,4.29,5.45,4.03,9.37l.36.28,3.22-4.42-.28-.21-3.24.07c-.73-2.37-1.94-4.12-3.75-5.46-3.18-2.31-6.74-2.26-8.48.13-1.58,2.16-.9,4.57,2.1,7.5l3.02,2.93c.64.63,1.59,1.74,1.94,2.26.67.97.77,1.69.3,2.34-.78,1.06-2.33.83-4.37-.68-1.9-1.38-3.09-3.09-3.91-5.54-.59-1.74-.81-3.41-.66-5.02l-.4-.3-3.52,4.82.4.3,3.55-.02c.29.89.43,1.32.63,1.76.76,1.71,2,3.25,3.64,4.44,3.31,2.41,6.43,2.43,8.2.01.93-1.3,1.13-2.72.51-4.15-.42-.97-1.54-2.42-2.82-3.75l-2.66-2.65c-1.29-1.33-1.89-2.03-2.26-2.72-.37-.6-.36-1.3-.01-1.78"></path>
  <path class="cls-7" d="m84.94,187.51l.46.17c1.19-1.41,2.25-2.27,3.78-3.09,1.68-.87,2.44-1,3.53-.62l.33.1-3.6,10.48c-.63,1.91-1.15,2.17-3.11,1.47l-.66-.23-.16.48,10.84,3.73.16-.48-.66-.23c-1.97-.65-2.22-1.18-1.56-3.07l3.6-10.48.34.12c1.04.39,1.51.89,2.38,2.64.7,1.42,1.23,3.56,1.15,4.8l.48.16,2.06-6.04-17.3-5.94-2.06,6.04Z"></path>
  <path class="cls-7" d="m114.18,188.36l.7-.02c2.06-.1,2.51.31,2.56,2.39l.32,8.9c.09,2.08-.33,2.52-2.38,2.57l-.7.02.03.51,11.43-.39-.03-.51-.69.02c-2.06.1-2.51-.31-2.56-2.39l-.32-8.9c-.09-2.08.32-2.52,2.38-2.57l.7-.02-.03-.51-11.43.39v.52Z"></path>
  <path class="cls-7" d="m127.99,186.77l2,6.59.48-.15c.11-1.97.42-3.36,1.17-5.03.81-1.8,1.33-2.38,2.44-2.7l.33-.11,3.48,11.43c.66,2.08.39,2.63-1.61,3.21l-.65.21.14.51,10.97-3.34-.14-.51-.68.2c-1.98.63-2.51.32-3.13-1.76l-3.48-11.43.36-.11c1.07-.31,1.75-.15,3.51.87,1.44.83,3.15,2.4,3.85,3.53l.48-.15-2-6.59-17.51,5.34Z"></path>
  <path class="cls-7" d="m153.3,189.5l-.32-5.75,5.04,2.86-4.72,2.88Zm15.46-4.75c-1.25.78-2.19.72-3.91-.28l-12.11-6.77-.44.26.42,12.22c.11,2.87-.44,4.57-1.67,5.39l.27.42,6.73-4.12-.26-.43c-.8.44-1.15.58-1.57.63-.9.11-1.98-.44-2.53-1.34-.14-.24-.23-.41-.29-.73l5.15-3.14,1.73.99c.23.14.5.36.59.53.3.49.06,1.13-.65,1.56l-.96.59.26.43,9.73-5.96-.26-.43-.25.16Z"></path>
  <path class="cls-7" d="m180.27,165.51c.25,1.36.32,3.05.21,4.59-.16,1.85-.63,2.96-1.86,4.39l-1.17,1.27-8.19-7.43c-1.51-1.33-1.52-1.93-.12-3.44l.47-.51-.37-.34-7.67,8.49.37.33.47-.51c1.37-1.54,1.96-1.58,3.45-.21l6.41,5.8c1.52,1.35,1.52,1.94.13,3.46l-.47.51.37.33,12.23-13.5-3.92-3.55-.32.35Z"></path>
  <path class="cls-7" d="m190.68,156.69c-1,1.8-1.58,1.98-3.31.95l-7.52-4.29c-1.76-.98-1.9-1.56-.86-3.33l.34-.61-.43-.25-5.67,9.94.43.25.34-.61c1.02-1.79,1.58-1.98,3.32-.95l7.52,4.29c1.76.98,1.9,1.56.86,3.35l-.35.6.43.25,5.66-9.93-.43-.25-.34.61Z"></path>
  <path class="cls-7" d="m193.67,132.43c.89,1.13,1.68,2.55,2.28,3.97.71,1.72.79,2.91.33,4.75l-.45,1.66-6.62-1.79.15-.54c.28-1.36,1.79-2.75,3.5-3.19l.13-.5-5.38-1.44-.13.5c1.41,1.49,1.86,2.92,1.39,4.5l-.15.54-5.92-1.59.6-2.2c.42-1.54.83-2.13,2.18-3.18,1.29-.98,2.7-1.75,4.21-2.35l.12-.46-5.05-1.37-4.69,17.41.48.12.2-.66c.51-1.99,1.03-2.31,2.97-1.76l8.35,2.25c1.96.5,2.24,1.02,1.68,3l-.18.67.48.12,4.74-17.58-5.11-1.37-.13.47Z"></path>
  <path class="cls-7" d="m184.78,106.31l-.51.04.4,7.34.49-.03c-.08-2.08,1.24-3.3,3.74-3.41l3.53-.2-7.46,8.97.45,8.32.49-.03v-.08c-.06-1,.12-1.44,1.1-2.82l.43-.55,7.84-.42c2.46-.15,3.99,1.07,4.09,3.27l.49-.03-.4-7.34-.49.03c.09,2.08-1.23,3.3-3.73,3.41l-7.32.41,11.49-13.68-.03-.48-10.52.56c-2.47.17-3.99-1.07-4.09-3.27"></path>
  <path class="cls-7" d="m45.17,82.13c1.01-1.55,1.87-1.87,4.52-1.6,4.51.32,8.92.86,13.23,1.6.07-.1.15-.2.22-.3-1.87-3.54-3.77-7.07-5.69-10.59,4.31.56,8.53,1.31,12.64,2.23.08-.1.17-.2.26-.31-1.55-3.41-3.11-6.8-4.71-10.19-1.33-2.72-1.34-4.95.08-6.43-.14-.11-.28-.21-.42-.32-2.02,2.02-3.97,4.08-5.83,6.16.14.1.28.21.41.31,1.27-1.11,3.11-1.25,4.33-.33.48.37.75.73,1.11,1.49.58,1.24,1.16,2.49,1.73,3.73-2.67-.55-5.39-1.04-8.15-1.45-.5-.05-.69-.11-.89-.25-.4-.27-.29-.72.43-1.57.12-.13.23-.27.35-.4-.14-.09-.28-.19-.42-.28-2.38,2.72-4.64,5.5-6.77,8.31.14.09.28.19.42.28,1.16-1.27,2.11-1.5,4.59-1.13.99,1.78,1.97,3.56,2.94,5.34-2.64-.4-5.31-.73-8.03-.99-.38-.02-.67-.11-.88-.22-.41-.25-.34-.7.3-1.56.1-.14.21-.28.31-.42-.14-.09-.28-.19-.43-.28-2.26,3.04-4.36,6.14-6.32,9.26.15.09.29.17.44.26.08-.13.16-.26.24-.39"></path>
  <rect class="cls-1" x="11.59" y="14.76" width="211.86" height="211.86"></rect>
  <rect class="cls-1" x="11.59" y="14.76" width="211.86" height="211.86"></rect>
  <path class="cls-8" d="m133.67,75.71c.08-.73.58-1.23,1.2-1.73.49.81-.03,1.56-1.2,1.73"></path>
  <path class="cls-8" d="m159.31,81.33c-.83-.16-1.78-.03-1.51-.95.92-.06,1.29.24,1.51.95"></path>
  <rect class="cls-1" x="11.59" y="14.76" width="211.86" height="211.86"></rect>
  <g>
    <g class="cls-5">
      <path class="cls-10" d="m101,92.97c.02-.83-.13-1.66-.28-2.44-.23-1.16.26-2.29.23-3.43-.01-.58,1.17-.47,1.4-1.13.82,1.03.29,2.19.68,3.22.79-.75-.04-1.38.19-2.07.2-.6-.13-1.34,1.02-1.62,1.22,2.23,1.36,4.65,1.48,7.09.11,2.25.4,4.47.6,6.7.23,2.57.85,5.09,1.07,7.66.3,3.61,1.01,7.15,1.52,10.73.12.85.15,1.72.36,2.56.83,3.35,1.1,6.82,1.9,10.17.3,1.24.47,2.52.78,3.75.48,1.89,1.16,3.77,1.18,5.77,0,.9.51,1.79.71,2.67.43,1.95,1.17,3.85,1.2,5.9.02,1.28.59,2.51.85,3.78.66,3.15,1.55,6.27,1.51,9.54-.01.98.26,1.95-.24,3.01-.85-.22-.76-.96-1.4-1.32-.34.12-.22.58-.64.65-.47.08-.57-.33-.9-.44q-.55.78-1.42.68c.27,3.25,1.79,6.32,1.71,9.81-.97-.25-1.08-.7-1.24-1.04-.18-.38-.47.16-1.12.68-.68,0-.73-.14-1.2.07-1.49-.4-2.29-.22-2.63.98-1.57-.43-1.59-.7-1.64.31-.93.16-1.42-.06-1.84-.74-.33-.54-.35.38-1.12,1.41-.48-.15-.53-.13-.87-1-.2-.51-1.45.27-1.84.82-.56.28-.87.89-1.11,1.47-1.06-.04-1.33-.37-1.25.1.07.38.08.84-.5.95-.5.1-.62-.33-.8-.63-.65-1.07-.58-2.4-1.7-3.32-.34.45-.54.94-.39,1.52-.43-.18-1-.07-1.48-.09-.42-.02-.52-.3-.56-.59-.12-.92.15.39-1.01,2.01-1.15-.34-1.17-1.24-1.37-1.88-.73-2.36-1.9-4.59-2.73-6.91-1.11-3.07-2.06-6.18-3.36-9.2-.46-1.08-.7-2.24-.99-3.37-.78-3.03-1.6-6.05-2.45-9.06-.58-2.08-.7-4.28-1.8-6.24-.2-.35-.19-.78-.15-1.21.1-1.01-.56-1.86-.77-2.81-1.03-4.65-1.58-9.38-2.44-14.05-.46-2.48-.74-5-1.11-7.5-.52-3.51-.8-7.07-1.14-10.62-.22-2.32-.15-4.67-.56-6.97-.35-2-.04-4.12-.38-6.13-.4-2.44-.29-4.92-.41-7.39-.09-1.8-.53-3.67.95-5.6.53,1.29,2.34-.06,3.06,1.06.08-.36.13-.54.18-.79,1.55.26,2.11-.13,3.74-1.14-.36,1.03.66.99,1.45.56,1.43,0,2.22.42,2.8-.23,1.45,1.19.85,1.73,2.4.87.37.04.41.53.96.38.28-.16,0-.38.09-.55.22-.42-.19-1.1.69-1.23.74-.11.68.56.98.88.36-.56.44-2.72,1.1-1.78,1.65,2.34,3.12,5.33,3.63,4.17.39-.88,1.1,1.17.96,1.92-.06.3,0,.62.06.92.36,1.59,2.11,2.87,3.23,2.56.38-.1,1.02-.03,1.02.63-.64-.16-1.03.04-.91.57.39,1.72.46,3.49.6,5.24.21,2.6,1.4,3.35,1.47.71Zm12.96,68.67c.52-.85.43-1.48.03-2.04-.22-.31-.33-.63-.35-.96-.1-1.7-.36-3.38-.88-5-.71-2.25-1.31-4.54-1.71-6.85-.51-2.9-.92-5.82-1.73-8.65-.42-1.46-.66-2.95-.82-4.42-.3-2.68-1.14-5.25-1.4-7.94-.26-2.7-.95-5.34-1.34-8.02-.06-.4-.14-.84-.18-1.25-.14-1.43-.56-2.82-.82-4.03,1.32,16.51,4.28,32.93,9.21,49.15m-15.85-38.21c-.12.02-.25.03-.37.05.57,5.05,1.42,10.06,2.91,14.96-.85-5-1.69-10-2.54-15.01m.35-29.99c-.45,4.86.23,9.58.93,14.3-.31-4.77-.62-9.53-.93-14.3m-15.33,42.93c.78,4.19,1.44,8.42,2.98,12.46-1.15-4.12-1.9-8.32-2.98-12.46m26.35,29.22c-.55.81-.02,2.57,1.06,3.45-.06-1.27-.29-2.36-1.06-3.45m-33.11-73.34c.16,2.43.32,4.87.48,7.3.17-2.46.22-4.92-.48-7.3m30.2,50.47c-.08.02-.17.05-.25.07l1.17,5.3c.08-.02.17-.04.26-.05l-1.18-5.32Zm1.41,8.89c.42.88.1,1.96.87,2.76-.42-.89.34-2.08-.87-2.76"></path>
    </g>
    <g class="cls-11">
      <path class="cls-10" d="m158.41,92.37c.04-.66-.08-1.32-.2-1.94-.18-.92.28-1.83.29-2.74,0-.46,1.06-.4,1.27-.93.71.8.21,1.74.54,2.55.73-.61,0-1.1.22-1.66.19-.48-.08-1.07.95-1.31,1.04,1.76,1.12,3.68,1.17,5.63.05,1.78.26,3.55.39,5.33.15,2.05.65,4.05.79,6.09.19,2.88.74,5.69,1.12,8.53.09.68.1,1.37.27,2.04.67,2.66.83,5.41,1.47,8.07.24.98.36,2,.62,2.98.39,1.5.95,2.98.92,4.58-.01.72.42,1.42.58,2.12.35,1.55.96,3.05.94,4.68-.02,1.02.47,1.99.67,2.99.52,2.5,1.25,4.97,1.14,7.58-.03.78.19,1.55-.28,2.41-.76-.16-.65-.75-1.23-1.03-.31.1-.21.47-.58.53-.42.08-.5-.25-.79-.33-.51.63.17,5.58.02,8.37-.86-.18-.95-.54-1.09-.81-.15-.3-.43.14-1.02.57-.61.02-.65-.1-1.08.08-1.33-.29-3.79.32-3.85,1.12-.84.15-1.27-.02-1.63-.55-.29-.42-.32.31-1.04,1.15-.42-.11-.47-.09-.76-.78-.17-.4-1.31.25-1.67.69-.51.23-.8.73-1.02,1.19-.95,0-1.19-.27-1.12.1.05.3.05.66-.48.77-.44.09-.55-.25-.7-.49-.56-.84-1.95-1.85-1.84-1.4-.38-.13-.57-.32-.65-.59-.24.25-.25.56-.68.56-.37,0-.36-.15-1.44,1.17-1.03-.25-1.02-.97-1.18-1.47-.6-1.87-1.6-3.62-2.29-5.45-.92-2.42-1.71-4.89-2.8-7.26-.39-.85-.58-1.78-.81-2.66-.63-2.4-1.29-4.8-1.99-7.18-.48-1.64-.53-3.4-1.47-4.94-.17-.28-.15-.62-.11-.96.11-.81-.46-1.47-.62-2.22-.82-3.68-1.2-7.45-1.87-11.16-.36-1.97-.55-3.97-.82-5.95-.39-2.79-.56-5.63-.78-8.45-.15-1.84-.04-3.72-.35-5.55-.27-1.59.06-3.29-.2-4.88-.31-1.94-.15-3.92-.2-5.88-.03-1.44-.39-2.91.98-4.49.44,1.02,2.1-.1,2.72.78.08-.29.12-.43.18-.63,1.38.18,1.89-.14,3.38-.99-.34.83.57.78,1.28.42,1.29-.03,1.99.28,2.52-.25,1.27.92.72,1.36,2.13.64.33.02.36.42.85.28.25-.13,0-.3.1-.44.2-.34-.15-.87.65-1,.66-.11.59.43.86.68.33-.46.04-1.07,1.03-1.45.79,2.09,2.32,4.33,3.15,3.25.66.49.96.91.82,1.51-.06.24-.02.5.04.73.29,1.26.24,2.65,2.09,3.32.32-.39.72-.81.81-.39.31,1.37.34,2.77.42,4.17.13,2.07,1.17,2.64,1.3.53Zm10.05,54.51c.48-.69.41-1.19.07-1.63-.19-.24-.29-.5-.3-.76-.05-1.36-.25-2.69-.67-3.97-.58-1.78-1.06-3.59-1.38-5.43-.39-2.3-.69-4.62-1.35-6.86-.34-1.16-.53-2.34-.64-3.51-.21-2.13-.9-4.16-1.07-6.3-.17-2.15-.72-4.24-1.02-6.37-.04-.32-.1-.67-.13-.99-.09-1.14-.43-2.24-.65-3.2.81,13.14,3.08,26.18,7.13,39.02m-13.32-30.15c-.11.02-.22.03-.34.05.39,4.02,1.04,8,2.27,11.87-.64-3.97-1.29-7.94-1.93-11.92m.99-23.93c-.51,3.89-.01,7.64.51,11.39-.17-3.8-.35-7.59-.51-11.39m-14.7,34.57c.6,3.33,1.1,6.69,2.39,9.88-.94-3.26-1.51-6.59-2.39-9.88m22.94,22.76c-.51.66-.08,2.05.87,2.73-.03-1.01-.21-1.88-.87-2.73m-27.98-57.81c.09,1.94.17,3.87.26,5.81.21-1.97.31-3.93-.26-5.81m25.9,39.63c-.07.02-.15.04-.23.06l.93,4.21c.08-.02.16-.03.23-.05l-.93-4.22Zm1.06,7.06c.36.7.05,1.56.72,2.18-.36-.7.35-1.67-.72-2.18"></path>
    </g>
    <g class="cls-14">
      <path class="cls-10" d="m130.34,102.07s-1.27-7.03-1.16-9.6c.04-.8-.11-1.61-.26-2.37-.22-1.13.31-2.23.3-3.33,0-.56,1.22-.48,1.46-1.11.83.99.26,2.12.65,3.11.83-.74-.01-1.34.23-2.01.22-.59-.11-1.3,1.08-1.58,1.22,2.15,1.34,4.49,1.42,6.86.08,2.17.35,4.33.52,6.49.2,2.49.81,4.93.99,7.41.26,3.5.94,6.92,1.41,10.38.11.82.13,1.66.34,2.48.81,3.24,1.03,6.59,1.82,9.83.29,1.19.44,2.43.75,3.63.47,1.82,1.14,3.64,1.13,5.58,0,.88.51,1.73.7,2.58.42,1.89,1.15,3.71,1.16,5.7,0,1.24.57,2.43.82,3.65.63,3.05,1.51,6.05,1.42,9.23-.03.95.24,1.88-.3,2.92-.88-.2-.77-.92-1.44-1.26-.35.12-.24.57-.67.65-.49.09-.58-.31-.92-.42q-.59.77-1.49.68c.23,3.15,1.76,6.11,1.62,9.49-.99-.23-1.11-.66-1.27-.99-.18-.36-.49.16-1.17.68-.7,0-.75-.13-1.25.09-1.54-.37-2.37-.18-2.74.99-1.62-.4-1.64-.65-1.7.32-.97.17-1.47-.04-1.9-.69-.34-.52-.37.37-1.19,1.39-.49-.14-.55-.12-.89-.95-.2-.49-1.5.28-1.92.82-.58.28-.92.88-1.17,1.44-1.09-.02-1.38-.34-1.3.11.06.37.07.81-.54.93-.51.1-.64-.31-.82-.59-.65-1.03-2.28-2.28-2.14-1.72-.45-.17-.67-.39-.76-.73-.27.31-.29.68-.78.67-.43,0-.42-.18-1.65,1.4-1.19-.31-1.19-1.19-1.39-1.81-.72-2.28-1.9-4.42-2.73-6.66-1.1-2.96-2.04-5.96-3.34-8.87-.46-1.04-.69-2.17-.98-3.25-.76-2.92-1.56-5.85-2.39-8.75-.58-2-.66-4.14-1.77-6.02-.2-.34-.18-.75-.14-1.17.12-.98-.54-1.8-.75-2.71-1-4.49-1.49-9.07-2.32-13.59-.44-2.4-.69-4.84-1.03-7.25-.48-3.4-.72-6.85-1.02-10.28-.2-2.24-.09-4.52-.47-6.75-.33-1.94.02-4-.3-5.94-.38-2.36-.23-4.77-.31-7.16-.06-1.75-.49-3.55,1.08-5.45.53,1.25,3.29.46,3.36.22,1.6.24,2.19-.15,3.89-1.16-.39,1,.67.95,1.49.52,1.49-.01,2.3.37,2.91-.27,1.49,1.13.86,1.67,2.48.81.38.03,1-.02,1.1-.19.23-.41-.18-1.06.74-1.21.77-.12.69.54,1,.84.38-.55,1.55,3.64,3.26,5.8.57-.95,2.73-2.43,2.57-1.71-.07.29-.02.6.05.89.35,1.54,2.14,2.75,3.3,2.44.4-.11,1.06-.04,1.05.6-.66-.15-1.07.06-.96.56.37,1.66.42,3.37.54,5.07.18,2.52.86,4.28.86,4.28l1.82,5.98Zm11.21,56.81c.55-.83.46-1.44.06-1.98-.23-.3-.34-.61-.35-.93-.08-1.65-.32-3.27-.83-4.83-.7-2.18-1.28-4.38-1.67-6.61-.49-2.8-.86-5.63-1.66-8.36-.41-1.41-.64-2.85-.78-4.28-.27-2.59-1.1-5.07-1.33-7.67-.23-2.61-.9-5.16-1.27-7.75-.06-.39-.12-.81-.16-1.21-.12-1.38-.53-2.73-.79-3.89,1.11,15.99,3.92,31.86,8.78,47.53m-15.83-36.82c-.13.02-.26.04-.39.05.51,4.9,1.31,9.74,2.79,14.46-.8-4.84-1.6-9.68-2.4-14.51m.82-29.09c-.54,4.72.09,9.29.75,13.85-.25-4.62-.5-9.23-.75-13.85m-16.56,41.85c.74,4.05,1.36,8.15,2.89,12.04-1.13-3.98-1.83-8.04-2.89-12.04m26.86,27.96c-.58.79-.06,2.48,1.05,3.33-.05-1.23-.27-2.29-1.05-3.33m-33.18-70.64c.13,2.36.26,4.71.39,7.07.22-2.39.31-4.77-.39-7.07m30.52,48.5c-.09.03-.17.05-.27.08l1.13,5.12c.09-.02.18-.04.27-.05l-1.14-5.15Zm1.32,8.6c.42.85.08,1.9.86,2.66-.42-.85.39-2.02-.86-2.66"></path>
    </g>
    <g class="cls-13">
      <path class="cls-6" d="m97.2,92.01c.02-.83-.13-1.66-.28-2.44-.23-1.16.26-2.29.23-3.43-.01-.58,1.17-.47,1.4-1.13.82,1.03.29,2.19.68,3.22.79-.75-.04-1.38.19-2.07.2-.6-.13-1.34,1.02-1.62,1.22,2.23,1.36,4.65,1.48,7.09.11,2.25.4,4.47.6,6.7.23,2.57.85,5.09,1.07,7.66.3,3.61,1.01,7.15,1.52,10.73.12.85.15,1.72.36,2.56.83,3.35,1.1,6.82,1.9,10.17.3,1.24.47,2.52.78,3.75.48,1.89,1.16,3.77,1.18,5.77,0,.9.51,1.79.71,2.67.43,1.95,1.17,3.85,1.2,5.9.02,1.28.59,2.51.85,3.78.66,3.15,1.55,6.27,1.51,9.54-.01.98.26,1.95-.24,3.01-.85-.22-.76-.96-1.4-1.32-.34.12-.22.58-.64.65-.47.08-.57-.33-.9-.44q-.55.78-1.42.68c.27,3.25,1.79,6.32,1.71,9.81-.97-.25-1.08-.7-1.24-1.04-.18-.38-.47.16-1.12.68-.68,0-.73-.14-1.2.07-1.49-.4-2.29-.22-2.63.98-1.57-.43-1.59-.7-1.64.31-.93.16-1.42-.06-1.84-.74-.33-.54-.35.38-1.12,1.41-.48-.15-.53-.13-.87-1-.2-.51-1.45.27-1.84.82-.56.28-.87.89-1.11,1.47-1.06-.04-1.33-.37-1.25.1.07.38.08.84-.5.95-.5.1-.62-.33-.8-.63-.65-1.07-.58-2.4-1.7-3.32-.34.45-.54.94-.39,1.52-.43-.18-1-.07-1.48-.09-.42-.02-.52-.3-.56-.59-.12-.92.15.39-1.01,2.01-1.15-.34-1.17-1.24-1.37-1.88-.73-2.36-1.9-4.59-2.73-6.91-1.11-3.07-2.06-6.18-3.36-9.2-.46-1.08-.7-2.24-.99-3.37-.78-3.03-1.6-6.05-2.45-9.06-.58-2.08-.7-4.28-1.8-6.24-.2-.35-.19-.78-.15-1.21.1-1.01-.56-1.86-.77-2.81-1.03-4.65-1.58-9.38-2.44-14.05-.46-2.48-.74-5-1.11-7.5-.52-3.51-.8-7.07-1.14-10.62-.22-2.32-.15-4.67-.56-6.97-.35-2-.04-4.12-.38-6.13-.4-2.44-.29-4.92-.41-7.39-.09-1.8,3.29-5.66,4.01-4.54.08-.36.13-.54.18-.79,1.55.26,2.11-.13,3.74-1.14-.36,1.03.66.99,1.45.56,1.43,0,2.22.42,2.8-.23,1.45,1.19.85,1.73,2.4.87.37.04.41.53.96.38.28-.16,0-.38.09-.55.22-.42-.19-1.1.69-1.23.74-.11.68.56.98.88.36-.56.44-2.72,1.1-1.78,1.65,2.34,3.12,5.33,3.63,4.17.39-.88,1.1,1.17.96,1.92-.06.3,0,.62.06.92.36,1.59,2.11,2.87,3.23,2.56.38-.1,1.02-.03,1.02.63-.64-.16-1.03.04-.91.57.39,1.72.46,3.49.6,5.24.21,2.6,1.4,3.35,1.47.71Zm12.96,68.67c.52-.85.43-1.48.03-2.04-.22-.31-.33-.63-.35-.96-.1-1.7-.36-3.38-.88-5-.71-2.25-1.31-4.54-1.71-6.85-.51-2.9-.92-5.82-1.73-8.65-.42-1.46-.66-2.95-.82-4.42-.3-2.68-1.14-5.25-1.4-7.94-.26-2.7-.95-5.34-1.34-8.02-.06-.4-.14-.84-.18-1.25-.14-1.43-.56-2.82-.82-4.03,1.32,16.51,4.28,32.93,9.21,49.15m-15.85-38.21c-.12.02-.25.03-.37.05.57,5.05,1.42,10.06,2.91,14.96-.85-5-1.69-10-2.54-15.01m.35-29.99c-.45,4.86.23,9.58.93,14.3-.31-4.77-.62-9.53-.93-14.3m-15.33,42.93c.78,4.19,1.44,8.42,2.98,12.46-1.15-4.12-1.9-8.32-2.98-12.46m26.35,29.22c-.55.81-.02,2.57,1.06,3.45-.06-1.27-.29-2.36-1.06-3.45m-33.11-73.34c.16,2.43.32,4.87.48,7.3.17-2.46.22-4.92-.48-7.3m30.2,50.47c-.08.02-.17.05-.25.07l1.17,5.3c.08-.02.17-.04.26-.05l-1.18-5.32Zm1.41,8.89c.42.88.1,1.96.87,2.76-.42-.89.34-2.08-.87-2.76"></path>
    </g>
    <g class="cls-12">
      <path class="cls-9" d="m154.62,91.41c.04-.66-.08-1.32-.2-1.94-.18-.92.28-1.83.29-2.74,0-.46,1.06-.4,1.27-.93.71.8.21,1.74.54,2.55.73-.61,0-1.1.22-1.66.19-.48-.08-1.07.95-1.31,1.04,1.76,1.12,3.68,1.17,5.63.05,1.78.26,3.55.39,5.33.15,2.05.65,4.05.79,6.09.19,2.88.74,5.69,1.12,8.53.09.68.1,1.37.27,2.04.67,2.66.83,5.41,1.47,8.07.24.98.36,2,.62,2.98.39,1.5.95,2.98.92,4.58-.01.72.42,1.42.58,2.12.35,1.55.96,3.05.94,4.68-.02,1.02.47,1.99.67,2.99.52,2.5,1.25,4.97,1.14,7.58-.03.78.19,1.55-.28,2.41-.76-.16-.65-.75-1.23-1.03-.31.1-.21.47-.58.53-.42.08-.5-.25-.79-.33-.51.63.17,5.58.02,8.37-.86-.18-.95-.54-1.09-.81-.15-.3-.43.14-1.02.57-.61.02-.65-.1-1.08.08-1.33-.29-3.79.32-3.85,1.12-.84.15-1.27-.02-1.63-.55-.29-.42-.32.31-1.04,1.15-.42-.11-.47-.09-.76-.78-.17-.4-1.31.25-1.67.69-.51.23-.8.73-1.02,1.19-.95,0-1.19-.27-1.12.1.05.3.05.66-.48.77-.44.09-.55-.25-.7-.49-.56-.84-1.95-1.85-1.84-1.4-.38-.13-.57-.32-.65-.59-.24.25-.25.56-.68.56-.37,0-.36-.15-1.44,1.17-1.03-.25-1.02-.97-1.18-1.47-.6-1.87-1.6-3.62-2.29-5.45-.92-2.42-1.71-4.89-2.8-7.26-.39-.85-.58-1.78-.81-2.66-.63-2.4-1.29-4.8-1.99-7.18-.48-1.64-.53-3.4-1.47-4.94-.17-.28-.15-.62-.11-.96.11-.81-.46-1.47-.62-2.22-.82-3.68-1.2-7.45-1.87-11.16-.36-1.97-.55-3.97-.82-5.95-.39-2.79-.56-5.63-.78-8.45-.15-1.84-.04-3.72-.35-5.55-.27-1.59.06-3.29-.2-4.88-.31-1.94-.15-3.92-.2-5.88-.03-1.44-.39-2.91.98-4.49.44,1.02,2.1-.1,2.72.78.08-.29.12-.43.18-.63,1.38.18,1.89-.14,3.38-.99-.34.83.57.78,1.28.42,1.29-.03,1.99.28,2.52-.25,1.27.92.72,1.36,2.13.64.33.02.36.42.85.28.25-.13,0-.3.1-.44.2-.34-.15-.87.65-1,.66-.11.59.43.86.68.33-.46.04-1.07,1.03-1.45.79,2.09,2.32,4.33,3.15,3.25.66.49.96.91.82,1.51-.06.24-.02.5.04.73.29,1.26.24,2.65,2.09,3.32.32-.39.72-.81.81-.39.31,1.37.34,2.77.42,4.17.13,2.07,1.17,2.64,1.3.53Zm-3.27,24.36c-.11.02-.22.03-.34.05.39,4.02,1.04,8,2.27,11.87-.64-3.97-1.29-7.94-1.93-11.92m.99-23.93c-.51,3.89-.01,7.64.51,11.39-.17-3.8-.35-7.59-.51-11.39m-14.7,34.57c.6,3.33,1.1,6.69,2.39,9.88-.94-3.26-1.51-6.59-2.39-9.88m22.94,22.76c-.51.66-.08,2.05.87,2.73-.03-1.01-.21-1.88-.87-2.73m-27.98-57.81c.09,1.94.17,3.87.26,5.81.21-1.97.31-3.93-.26-5.81m25.9,39.63c-.07.02-.15.04-.23.06l.93,4.21c.08-.02.16-.03.23-.05l-.93-4.22Zm1.06,7.06c.36.7.05,1.56.72,2.18-.36-.7.35-1.67-.72-2.18"></path>
    </g>
    <g class="cls-15">
      <path class="cls-7" d="m126.54,101.1s-1.27-7.03-1.16-9.6c.04-.8-.11-1.61-.26-2.37-.22-1.13.31-2.23.3-3.33,0-.56,1.22-.48,1.46-1.11.83.99.26,2.12.65,3.11.83-.74-.01-1.34.23-2.01.22-.59-.11-1.3,1.08-1.58,1.22,2.15,1.34,4.49,1.42,6.86.08,2.17.35,4.33.52,6.49.2,2.49.81,4.93.99,7.41.26,3.5.94,6.92,1.41,10.38.11.82.13,1.66.34,2.48.81,3.24,1.03,6.59,1.82,9.83.29,1.19.44,2.43.75,3.63.47,1.82,1.14,3.64,1.13,5.58,0,.88.51,1.73.7,2.58.42,1.89,1.15,3.71,1.16,5.7,0,1.24.57,2.43.82,3.65.63,3.05,1.51,6.05,1.42,9.23-.03.95.24,1.88-.3,2.92-.88-.2-.77-.92-1.44-1.26-.35.12-.24.57-.67.65-.49.09-.58-.31-.92-.42q-.59.77-1.49.68c.23,3.15,1.76,6.11,1.62,9.49-.99-.23-1.11-.66-1.27-.99-.18-.36-.49.16-1.17.68-.7,0-.75-.13-1.25.09-1.54-.37-2.37-.18-2.74.99-1.62-.4-1.64-.65-1.7.32-.97.17-1.47-.04-1.9-.69-.34-.52-.37.37-1.19,1.39-.49-.14-.55-.12-.89-.95-.2-.49-1.5.28-1.92.82-.58.28-.92.88-1.17,1.44-1.09-.02-1.38-.34-1.3.11.06.37.07.81-.54.93-.51.1-.64-.31-.82-.59-.65-1.03-2.28-2.28-2.14-1.72-.45-.17-.67-.39-.76-.73-.27.31-.29.68-.78.67-.43,0-.42-.18-1.65,1.4-1.19-.31-1.19-1.19-1.39-1.81-.72-2.28-1.9-4.42-2.73-6.66-1.1-2.96-2.04-5.96-3.34-8.87-.46-1.04-.69-2.17-.98-3.25-.76-2.92-1.56-5.85-2.39-8.75-.58-2-.66-4.14-1.77-6.02-.2-.34-.18-.75-.14-1.17.12-.98-.54-1.8-.75-2.71-1-4.49-1.49-9.07-2.32-13.59-.44-2.4-.69-4.84-1.03-7.25-.48-3.4-.72-6.85-1.02-10.28-.2-2.24-.09-4.52-.47-6.75-.33-1.94.02-4-.3-5.94-.38-2.36-.23-4.77-.31-7.16-.06-1.75-.49-3.55,1.08-5.45.53,1.25,3.29.46,3.36.22,1.6.24,2.19-.15,3.89-1.16-.39,1,.67.95,1.49.52,1.49-.01,2.3.37,2.91-.27,1.49,1.13.86,1.67,2.48.81.38.03,1-.02,1.1-.19.23-.41-.18-1.06.74-1.21.77-.12.69.54,1,.84.38-.55,1.55,3.64,3.26,5.8.57-.95,2.73-2.43,2.57-1.71-.07.29-.02.6.05.89.35,1.54,2.14,2.75,3.3,2.44.4-.11,1.06-.04,1.05.6-.66-.15-1.07.06-.96.56.37,1.66.42,3.37.54,5.07.18,2.52.86,4.28.86,4.28l1.82,5.98Zm11.21,56.81c.55-.83.46-1.44.06-1.98-.23-.3-.34-.61-.35-.93-.08-1.65-.32-3.27-.83-4.83-.7-2.18-1.28-4.38-1.67-6.61-.49-2.8-.86-5.63-1.66-8.36-.41-1.41-.64-2.85-.78-4.28-.27-2.59-1.1-5.07-1.33-7.67-.23-2.61-.9-5.16-1.27-7.75-.06-.39-.12-.81-.16-1.21-.12-1.38-.53-2.73-.79-3.89,1.11,15.99,3.92,31.86,8.78,47.53m-15.83-36.82c-.13.02-.26.04-.39.05.51,4.9,1.31,9.74,2.79,14.46-.8-4.84-1.6-9.68-2.4-14.51m.82-29.09c-.54,4.72.09,9.29.75,13.85-.25-4.62-.5-9.23-.75-13.85m-16.56,41.85c.74,4.05,1.36,8.15,2.89,12.04-1.13-3.98-1.83-8.04-2.89-12.04m26.86,27.96c-.58.79-.06,2.48,1.05,3.33-.05-1.23-.27-2.29-1.05-3.33m-33.18-70.64c.13,2.36.26,4.71.39,7.07.22-2.39.31-4.77-.39-7.07m30.52,48.5c-.09.03-.17.05-.27.08l1.13,5.12c.09-.02.18-.04.27-.05l-1.14-5.15Zm1.32,8.6c.42.85.08,1.9.86,2.66-.42-.85.39-2.02-.86-2.66"></path>
    </g>
  </g>
  <rect class="cls-1" x="11.59" y="14.76" width="211.86" height="211.86"></rect>
</svg>
