<svg xmlns="http://www.w3.org/2000/svg" width="985" height="627" viewBox="0 0 985 627" version="1.1"><path d="M 131 191 C 131 191.600, 127.020 192, 121.059 192 C 115.510 192, 110.845 192.442, 110.500 193 C 110.160 193.550, 108.810 194, 107.500 194 C 106.190 194, 104.840 194.450, 104.500 195 C 104.160 195.550, 102.572 196, 100.971 196 C 99.371 196, 96.458 196.900, 94.500 198 C 92.542 199.100, 90.272 200, 89.456 200 C 88.640 200, 87.191 200.416, 86.236 200.925 C 85.281 201.433, 80 203.994, 74.500 206.614 C 69 209.235, 62.774 212.756, 60.665 214.440 C 54.135 219.651, 33 240.331, 33 241.510 C 33 242.124, 31.650 243.919, 30 245.500 C 28.350 247.081, 27 248.910, 27 249.565 C 27 250.219, 26.335 251.307, 25.523 251.981 C 24.711 252.655, 22.835 255.748, 21.354 258.853 C 19.874 261.959, 17.782 265.490, 16.705 266.699 C 15.628 267.909, 14.979 269.502, 15.262 270.241 C 15.546 270.980, 15.167 272.419, 14.421 273.439 C 13.675 274.460, 13.283 275.649, 13.551 276.083 C 13.819 276.516, 13.130 278.489, 12.019 280.466 C 10.909 282.443, 10 285.397, 10 287.030 C 10 288.664, 9.550 290, 9 290 C 8.450 290, 8 291.800, 8 294 C 8 296.200, 7.550 298, 7 298 C 6.412 298, 6 301.480, 6 306.441 C 6 311.084, 5.550 315.160, 5 315.500 C 4.450 315.840, 4 319.916, 4 324.559 C 4 329.520, 4.412 333, 5 333 C 5.588 333, 6 336.480, 6 341.441 C 6 346.084, 6.450 350.160, 7 350.500 C 7.550 350.840, 8 352.666, 8 354.559 C 8 356.452, 8.450 358, 9 358 C 9.550 358, 10 359.350, 10 361 C 10 362.650, 10.480 364, 11.067 364 C 11.660 364, 11.867 364.843, 11.533 365.895 C 11.187 366.987, 11.589 368.446, 12.484 369.341 C 13.337 370.195, 13.954 371.254, 13.854 371.696 C 13.527 373.139, 15.239 378.464, 16.522 380 C 17.212 380.825, 18.704 383.564, 19.839 386.086 C 20.973 388.609, 22.598 391.252, 23.450 391.959 C 24.303 392.666, 25 394.090, 25 395.122 C 25 396.155, 25.450 397, 26 397 C 26.550 397, 27 397.579, 27 398.288 C 27 398.996, 29.250 401.791, 32 404.500 C 34.750 407.209, 37 409.967, 37 410.629 C 37 412.106, 49.598 424.374, 51.576 424.823 C 52.359 425.001, 53 425.800, 53 426.598 C 53 427.396, 54.031 428.441, 55.291 428.921 C 56.551 429.400, 58.181 430.514, 58.914 431.396 C 59.646 432.278, 60.795 433, 61.467 433 C 62.140 433, 63.505 433.900, 64.500 435 C 65.495 436.100, 66.915 437, 67.655 437 C 68.395 437, 69 437.450, 69 438 C 69 438.550, 69.900 439, 71 439 C 72.100 439, 73 439.450, 73 440 C 73 440.550, 73.675 441, 74.500 441 C 75.781 441, 76 443.771, 76 459.941 C 76 471.226, 76.396 479.127, 76.980 479.487 C 77.600 479.871, 77.529 480.782, 76.785 481.972 C 75.885 483.414, 75.890 484.463, 76.806 486.473 C 77.463 487.915, 78 490.192, 78 491.533 C 78 493.270, 79.150 494.733, 82 496.619 C 84.200 498.075, 86 499.656, 86 500.133 C 86 500.610, 88.227 501, 90.948 501 C 94.841 501, 96.473 500.466, 98.595 498.500 C 100.078 497.125, 101.880 496, 102.599 496 C 105.778 496, 106.963 489.861, 107.234 472 L 107.500 454.500 110.877 454.177 C 112.735 454, 114.737 454.337, 115.327 454.927 C 116.741 456.341, 157.628 456.410, 158.500 455 C 158.840 454.450, 160.801 454, 162.859 454 C 164.917 454, 167.143 453.457, 167.807 452.793 C 168.750 451.850, 169.359 451.931, 170.589 453.161 C 171.923 454.494, 172.146 457.692, 172.043 474.012 C 171.926 492.566, 172.004 493.375, 174.116 495.624 C 175.643 497.248, 176.996 497.788, 178.561 497.395 C 180.249 496.972, 180.977 497.352, 181.473 498.915 C 182.441 501.963, 188.903 501.794, 192.673 498.621 C 194.228 497.313, 196.400 496.071, 197.500 495.860 C 199.306 495.514, 199.574 494.365, 200.265 483.998 C 200.685 477.685, 200.770 471.843, 200.452 471.015 C 200.135 470.188, 199.875 463.500, 199.875 456.153 C 199.875 444.931, 200.150 442.492, 201.592 440.898 C 202.537 439.854, 203.860 439, 204.533 439 C 205.205 439, 206.334 438.303, 207.041 437.450 C 207.748 436.598, 210.166 435.058, 212.414 434.027 C 214.661 432.996, 218.051 430.544, 219.946 428.577 C 221.842 426.609, 223.858 425, 224.426 425 C 225.809 425, 243 407.839, 243 406.458 C 243 405.862, 244.334 404.096, 245.964 402.534 C 247.595 400.972, 248.725 399.364, 248.475 398.960 C 248.226 398.557, 248.687 397.675, 249.500 397 C 250.313 396.325, 250.769 395.435, 250.513 395.020 C 250.257 394.606, 250.937 393.462, 252.024 392.479 C 253.111 391.495, 254 390.155, 254 389.500 C 254 388.845, 254.900 387.495, 256 386.500 C 257.100 385.505, 258 383.949, 258 383.044 C 258 380.933, 260.270 376.018, 261.250 376.008 C 261.663 376.004, 262 374.650, 262 373 C 262 371.350, 262.450 370, 263 370 C 263.550 370, 264 369.100, 264 368 C 264 366.900, 264.450 366, 265 366 C 265.550 366, 266 364.200, 266 362 C 266 359.800, 266.450 358, 267 358 C 267.550 358, 268 356.238, 268 354.083 C 268 351.929, 268.513 349.996, 269.140 349.787 C 270.742 349.253, 270.727 298.742, 269.124 298.208 C 268.506 298.002, 268 296.071, 268 293.917 C 268 291.762, 267.550 290, 267 290 C 266.450 290, 266 288.664, 266 287.030 C 266 285.397, 265.100 282.458, 264 280.500 C 262.900 278.542, 262 275.673, 262 274.125 C 262 272.577, 261.100 270.495, 260 269.500 C 258.900 268.505, 258 266.929, 258 265.999 C 258 263.793, 255.366 258.549, 253.467 256.973 C 252.647 256.292, 250.608 252.870, 248.937 249.367 C 247.265 245.865, 245.246 243, 244.449 243 C 243.652 243, 243 242.477, 243 241.839 C 243 240.457, 222.008 219, 220.657 219 C 220.144 219, 217.771 217.200, 215.384 215 C 212.997 212.800, 210.190 211, 209.145 211 C 208.100 211, 206.692 210.334, 206.017 209.521 C 204.128 207.245, 198.844 204.915, 196.942 205.518 C 195.978 205.824, 195 205.442, 194.692 204.640 C 194.105 203.110, 188.531 200, 186.377 200 C 185.653 200, 183.458 199.100, 181.500 198 C 179.542 196.900, 176.153 196, 173.970 196 C 171.786 196, 170 195.550, 170 195 C 170 194.450, 168.677 194, 167.059 194 C 165.441 194, 163.840 193.550, 163.500 193 C 163.155 192.442, 158.490 192, 152.941 192 C 146.980 192, 143 191.600, 143 191 C 143 190.444, 140.333 190, 137 190 C 133.667 190, 131 190.444, 131 191 M 122.500 200 C 122.160 200.550, 119.434 201, 116.441 201 C 113.448 201, 111 201.450, 111 202 C 111 202.550, 109.869 203, 108.486 203 C 106.066 203, 105.156 203.315, 100.264 205.844 C 99.034 206.480, 96.910 207, 95.544 207 C 94.178 207, 91.458 207.900, 89.500 209 C 87.542 210.100, 85.165 211.002, 84.220 211.004 C 83.274 211.007, 80.250 212.708, 77.500 214.784 C 74.750 216.860, 70.918 219.304, 68.985 220.215 C 67.052 221.126, 64.386 223.025, 63.061 224.435 C 61.736 225.846, 60.158 227, 59.556 227 C 58.153 227, 40 245.189, 40 246.594 C 40 247.176, 38.875 248.708, 37.500 250 C 36.125 251.292, 35 252.688, 35 253.104 C 35 253.519, 33.200 256.569, 31 259.881 C 28.800 263.193, 27 266.600, 27 267.451 C 27 268.303, 26.580 269, 26.066 269 C 25.553 269, 24.990 270.238, 24.816 271.750 C 24.626 273.407, 23.644 274.876, 22.345 275.446 C 20.577 276.223, 20.286 276.986, 20.726 279.696 C 21.067 281.803, 20.852 283, 20.131 283 C 19.509 283, 19 284.548, 19 286.441 C 19 288.334, 18.550 290.160, 18 290.500 C 17.450 290.840, 17 292.640, 17 294.500 C 17 296.360, 16.550 298.160, 16 298.500 C 15.450 298.840, 15 301.540, 15 304.500 C 15 307.460, 14.550 310.160, 14 310.500 C 12.671 311.321, 12.671 336.679, 14 337.500 C 14.550 337.840, 15 340.540, 15 343.500 C 15 346.460, 15.450 349.160, 16 349.500 C 16.550 349.840, 17 351.666, 17 353.559 C 17 355.452, 17.450 357, 18 357 C 18.550 357, 19 358.773, 19 360.941 C 19 363.109, 19.457 365.165, 20.016 365.510 C 20.575 365.856, 20.772 366.560, 20.453 367.076 C 20.134 367.592, 20.577 368.284, 21.437 368.614 C 22.296 368.944, 23 369.847, 23 370.621 C 23 371.956, 23.437 373.006, 26.175 378.250 C 26.821 379.488, 28.283 382.300, 29.425 384.500 C 30.566 386.700, 31.725 388.725, 32 389 C 32.275 389.275, 32.950 390.220, 33.500 391.100 C 37.526 397.543, 40.744 401.829, 44.103 405.222 C 46.246 407.387, 48 409.587, 48 410.111 C 48 410.634, 48.648 411.311, 49.440 411.615 C 50.232 411.919, 53.224 414.380, 56.089 417.084 C 58.954 419.788, 61.906 422, 62.649 422 C 63.392 422, 64 422.675, 64 423.500 C 64 424.438, 64.948 425, 66.531 425 C 68.025 425, 69.332 425.717, 69.719 426.750 C 70.081 427.712, 71.079 429.048, 71.938 429.718 C 75.897 432.806, 76.003 432.107, 75.930 403.250 C 75.891 387.988, 75.473 374.600, 75 373.500 C 74.527 372.400, 74.109 371.863, 74.070 372.307 C 73.874 374.554, 61 364.156, 61 361.750 C 61 361.291, 60.100 359.950, 59 358.770 C 57.672 357.345, 57 355.241, 57 352.511 C 57 350.250, 56.541 347.941, 55.981 347.381 C 55.332 346.732, 55.059 338.037, 55.231 323.431 L 55.500 300.500 59.750 300.193 L 64 299.885 64 323.383 C 64 337.970, 64.379 347.116, 65 347.500 C 65.550 347.840, 66 348.998, 66 350.073 C 66 351.148, 66.563 353.003, 67.250 354.196 C 68.991 357.217, 76.726 365, 77.987 365 C 79.375 365, 82.978 362.947, 85.750 360.576 C 87.988 358.661, 88 358.501, 88 329.326 L 88 300 92.383 300 C 96.084 300, 96.861 300.351, 97.370 302.250 C 97.701 303.488, 97.979 316.951, 97.986 332.168 C 97.994 347.386, 98.273 360.548, 98.607 361.418 C 98.941 362.288, 100.201 363, 101.407 363 C 102.613 363, 104.057 363.457, 104.615 364.015 C 105.303 364.703, 106.608 364.543, 108.654 363.523 C 112.519 361.595, 114.671 359.187, 117.468 353.663 C 119.597 349.457, 119.716 348.015, 119.803 325.365 C 119.853 312.239, 119.918 301.047, 119.947 300.493 C 119.977 299.917, 121.929 299.639, 124.500 299.843 L 129 300.201 129 327.101 C 129 341.895, 128.656 354, 128.236 354 C 127.816 354, 126.721 355.733, 125.803 357.851 C 124.045 361.909, 114.622 372, 112.591 372 C 110.703 372, 109 374.201, 109 376.641 C 109 377.874, 108.550 379.160, 108 379.500 C 106.443 380.462, 106.669 433.497, 108.241 436.014 C 109.233 437.604, 109.222 438.415, 108.183 440.078 C 106.557 442.683, 108.148 445, 111.563 445 C 112.839 445, 114.160 445.450, 114.500 446 C 114.840 446.550, 117.791 447, 121.059 447 C 124.353 447, 127 447.446, 127 448 C 127 448.606, 131.333 449, 138 449 C 144.667 449, 149 448.606, 149 448 C 149 447.450, 151.250 447, 154 447 C 156.750 447, 159 446.550, 159 446 C 159 445.450, 161.160 445, 163.800 445 C 166.440 445, 169.140 444.460, 169.800 443.800 C 170.684 442.916, 171 434.022, 171 409.999 C 171 376.339, 170.537 372.026, 166.919 372.008 C 166.049 372.004, 164.702 370.762, 163.926 369.250 C 163.149 367.738, 161.723 365.772, 160.757 364.883 C 159.791 363.993, 159 362.531, 159 361.633 C 159 360.735, 158.550 360, 158 360 C 157.450 360, 157 359.127, 157 358.059 C 157 356.991, 156.550 355.840, 156 355.500 C 155.450 355.160, 155 353.360, 155 351.500 C 155 349.640, 154.550 347.840, 154 347.500 C 153.450 347.160, 153 345.810, 153 344.500 C 153 343.190, 152.550 341.840, 152 341.500 C 151.450 341.160, 151 338.010, 151 334.500 C 151 330.990, 151.450 327.840, 152 327.500 C 152.550 327.160, 153 324.685, 153 322 C 153 319.315, 153.450 316.840, 154 316.500 C 154.550 316.160, 155 314.868, 155 313.630 C 155 312.391, 155.900 310.411, 157 309.230 C 158.100 308.050, 159 306.122, 159 304.946 C 159 302.894, 162.585 296.858, 164.214 296.167 C 164.646 295.983, 165 294.971, 165 293.917 C 165 292.537, 165.703 292, 167.509 292 C 168.933 292, 171.376 290.702, 173.157 289 C 174.884 287.350, 177.328 286, 178.589 286 C 179.850 286, 181.160 285.550, 181.500 285 C 181.840 284.450, 183.640 284, 185.500 284 C 187.360 284, 189.160 284.450, 189.500 285 C 189.840 285.550, 191.357 286, 192.870 286 C 194.384 286, 196.589 286.900, 197.770 288 C 198.950 289.100, 200.296 290, 200.760 290 C 201.953 290, 211 298.930, 211 300.108 C 211 300.645, 211.900 302.050, 213 303.230 C 214.100 304.411, 215 306.417, 215 307.689 C 215 308.960, 215.450 310, 216 310 C 216.550 310, 217 311.800, 217 314 C 217 316.200, 217.450 318, 218 318 C 218.550 318, 219 319.800, 219 322 C 219 324.200, 219.450 326, 220 326 C 220.556 326, 221 328.667, 221 332 C 221 335.333, 220.556 338, 220 338 C 219.429 338, 219 341, 219 345 C 219 348.850, 218.662 352.004, 218.250 352.008 C 217.373 352.017, 215 356.842, 215 358.616 C 215 359.286, 214.649 359.983, 214.219 360.167 C 213.789 360.350, 212.691 362.068, 211.777 363.985 C 210.864 365.902, 208.240 369.502, 205.946 371.985 L 201.776 376.500 201.638 402.819 L 201.500 429.137 204 428.519 C 205.375 428.179, 207.175 427.765, 208 427.600 C 208.825 427.434, 212.936 423.924, 217.136 419.800 C 221.336 415.676, 225.498 412.023, 226.386 411.682 C 227.274 411.341, 228 410.655, 228 410.157 C 228 408.490, 234.621 402, 236.321 402 C 237.244 402, 238 401.300, 238 400.445 C 238 397.853, 241.840 390.275, 243.471 389.649 C 244.312 389.327, 245 388.239, 245 387.231 C 245 386.224, 245.425 384.972, 245.945 384.450 C 247.455 382.933, 255 367.861, 255 366.362 C 255 365.613, 255.450 365, 256 365 C 256.550 365, 257 363.677, 257 362.059 C 257 360.441, 257.450 358.840, 258 358.500 C 258.550 358.160, 259 356.135, 259 354 C 259 351.865, 259.450 349.840, 260 349.500 C 260.550 349.160, 261 346.460, 261 343.500 C 261 340.540, 261.450 337.840, 262 337.500 C 262.583 337.140, 263 331.509, 263 324 C 263 316.491, 262.583 310.860, 262 310.500 C 261.450 310.160, 261 307.460, 261 304.500 C 261 301.540, 260.550 298.840, 260 298.500 C 259.450 298.160, 259 296.585, 259 295 C 259 293.415, 258.550 291.840, 258 291.500 C 257.450 291.160, 257 289.360, 257 287.500 C 257 285.640, 256.550 283.840, 256 283.500 C 255.450 283.160, 255 282.124, 255 281.198 C 255 278.331, 243.929 257.089, 241.396 255.097 C 240.078 254.060, 239 252.489, 239 251.606 C 239 250.723, 238.502 250, 237.893 250 C 237.284 250, 237.029 249.367, 237.326 248.594 C 237.903 247.089, 235.110 244, 233.171 244 C 232.527 244, 232 243.379, 232 242.621 C 232 241.143, 222.463 232, 220.923 232 C 220.415 232, 220 231.325, 220 230.500 C 220 229.675, 219.566 229, 219.035 229 C 218.504 229, 216.532 227.650, 214.653 226 C 212.774 224.350, 210.811 223, 210.292 223 C 209.773 223, 208.294 221.877, 207.005 220.505 C 204.731 218.085, 195.685 213.023, 193.554 212.978 C 192.974 212.966, 191.375 212.076, 190 211 C 188.625 209.924, 186.600 209.024, 185.500 209 C 184.400 208.976, 182.375 208.076, 181 207 C 179.551 205.867, 176.924 205.035, 174.750 205.022 C 172.688 205.010, 171 204.550, 171 204 C 171 203.450, 168.777 203, 166.059 203 C 163.341 203, 160.840 202.550, 160.500 202 C 160.160 201.450, 158.135 201, 156 201 C 153.865 201, 151.840 200.550, 151.500 200 C 151.136 199.411, 145.176 199, 137 199 C 128.824 199, 122.864 199.411, 122.500 200 M 181 295.598 C 179.069 296.254, 177.351 296.386, 177.167 295.893 C 176.538 294.209, 175 295, 175 297.007 C 175 298.110, 173.875 299.991, 172.500 301.187 C 171.125 302.382, 170 303.761, 170 304.250 C 170 304.739, 168.650 307.102, 167 309.500 C 165.350 311.898, 164 314.567, 164 315.430 C 164 316.294, 163.550 317, 163 317 C 162.437 317, 162 319.814, 162 323.441 C 162 326.984, 161.550 330.160, 161 330.500 C 160.450 330.840, 160 332.415, 160 334 C 160 335.585, 160.450 337.160, 161 337.500 C 161.550 337.840, 162 340.090, 162 342.500 C 162 344.910, 162.450 347.160, 163 347.500 C 163.550 347.840, 164 349.216, 164 350.559 C 164 351.902, 164.450 353, 165 353 C 165.550 353, 166 353.900, 166 355 C 166 356.100, 166.450 357, 167 357 C 167.550 357, 168 357.663, 168 358.473 C 168 360.935, 176.144 369, 178.630 369 C 179.869 369, 181.155 369.441, 181.488 369.981 C 182.159 371.067, 189.476 370.857, 190.614 369.720 C 191.009 369.324, 192.298 369, 193.478 369 C 197.428 369, 208 355.142, 208 349.965 C 208 348.949, 208.450 347.840, 209 347.500 C 209.550 347.160, 210 344.652, 210 341.927 C 210 339.202, 210.558 336.079, 211.241 334.986 C 212.228 333.405, 212.228 332.595, 211.241 331.014 C 210.558 329.921, 210 326.798, 210 324.073 C 210 321.348, 209.550 318.840, 209 318.500 C 208.450 318.160, 208 316.810, 208 315.500 C 208 314.190, 207.550 312.840, 207 312.500 C 206.450 312.160, 206 310.959, 206 309.832 C 206 308.699, 203.650 305.406, 200.750 302.473 C 194.426 296.080, 187.097 293.528, 181 295.598 M 178 353.806 C 178 355.317, 182.049 360.003, 183.323 359.967 C 183.970 359.948, 183.488 359.089, 182.250 358.056 C 181.012 357.024, 180 355.716, 180 355.149 C 180 354.582, 179.550 353.840, 179 353.500 C 178.450 353.160, 178 353.298, 178 353.806 M 88.024 371.471 C 87.097 372.588, 86.766 386.776, 86.651 430.221 L 86.500 487.500 88.866 487.835 C 90.171 488.019, 91.456 489.028, 91.732 490.085 C 92.008 491.138, 93.081 492, 94.117 492 C 95.152 492, 96 492.450, 96 493 C 96 493.550, 96.563 494, 97.250 494 C 98.938 494.001, 98.549 373.367, 96.855 371.325 C 95.376 369.543, 89.544 369.640, 88.024 371.471 M 181.801 421.250 C 181.636 443.938, 181.636 469.137, 181.801 477.250 L 182.103 492 185.429 492 C 187.258 492, 189.213 491.438, 189.773 490.750 C 190.353 490.038, 190.714 484.764, 190.612 478.500 C 190.514 472.450, 190.863 466.475, 191.389 465.223 C 192.048 463.654, 191.981 462.581, 191.173 461.773 C 190.316 460.916, 190 450.075, 190 421.500 C 190 392.422, 189.692 382.092, 188.800 381.200 C 188.140 380.540, 186.363 380, 184.851 380 L 182.103 380 181.801 421.250" stroke="none" fill="#f90916" fill-rule="evenodd"/><path d="M 58.250 297.496 C 56.362 299.641, 56.684 300, 60.500 300 C 64.351 300, 64.704 299.562, 62.571 297.429 C 60.803 295.660, 59.853 295.675, 58.250 297.496 M 122.250 297.496 C 120.329 299.677, 120.684 300, 125 300 C 129.390 300, 129.903 299.406, 127.250 297.392 C 125.018 295.698, 123.811 295.723, 122.250 297.496 M 324 300.045 C 318.225 300.436, 312.938 300.810, 312.250 300.877 C 311.267 300.974, 311 312.232, 311 353.500 L 311 406 325.500 406 L 340 406 340 352.500 L 340 299 337.250 299.168 C 335.738 299.260, 329.775 299.655, 324 300.045 M 358.923 301.923 C 356.631 304.216, 356 305.742, 356 309 C 356 312.258, 356.631 313.784, 358.923 316.077 C 361.566 318.720, 362.482 319, 368.473 319 C 372.373 319, 376.279 318.390, 377.966 317.517 C 381.825 315.522, 383.579 310.283, 381.994 305.483 C 380.441 300.775, 376.739 299, 368.473 299 C 362.482 299, 361.566 299.280, 358.923 301.923 M 938 300.045 C 932.225 300.436, 927.163 300.810, 926.750 300.877 C 926.337 300.945, 926 308.738, 926 318.196 L 926 335.392 922.750 332.258 C 918.520 328.178, 915.195 327, 907.903 327 C 889.929 327, 881.030 340.578, 881.030 368 C 881.030 385.682, 884.243 396.494, 891.355 402.739 C 896.084 406.890, 900.915 408.287, 908.971 407.832 C 914.457 407.522, 916.742 406.837, 920.880 404.265 L 926 401.083 926 403.541 L 926 406 940 406 L 954 406 954 352.500 L 954 299 951.250 299.168 C 949.737 299.260, 943.775 299.655, 938 300.045 M 182 300.943 C 181.175 301.397, 179.262 302.347, 177.749 303.054 C 175.217 304.237, 173.805 306.091, 168.998 314.542 C 165.893 320.001, 164.326 335.527, 166.076 343.500 C 167.556 350.246, 171.422 358.481, 173.934 360.241 C 175.063 361.032, 175.653 362.048, 175.244 362.499 C 174.835 362.950, 175.338 363.017, 176.361 362.648 C 177.714 362.160, 178.075 362.363, 177.681 363.390 C 177.170 364.720, 179.575 365.952, 182.750 365.986 C 185.101 366.012, 184.020 361.174, 181 358.154 C 179.350 356.504, 178 354.499, 178 353.699 C 178 352.899, 177.330 351.689, 176.511 351.009 C 175.692 350.329, 175.271 349.371, 175.575 348.879 C 175.879 348.387, 175.465 347.323, 174.656 346.513 C 173.633 345.491, 173.349 343.816, 173.724 341.021 C 174.027 338.762, 173.846 337, 173.310 337 C 172.786 337, 172.255 334.750, 172.129 332 C 171.981 328.748, 172.306 327, 173.059 327 C 173.793 327, 173.988 326.090, 173.592 324.512 C 172.985 322.093, 174.030 319.332, 176.905 315.750 C 177.678 314.788, 178.037 314, 177.703 314 C 176.243 314, 181.804 309.207, 184.750 307.925 C 188.168 306.439, 189.072 303.472, 186.800 301.200 C 185.430 299.830, 184.147 299.761, 182 300.943 M 584.456 303.750 C 584.793 305.262, 590.811 328.775, 597.828 356 L 610.587 405.500 621.043 405.500 L 631.500 405.500 638.416 378.749 C 642.220 364.036, 645.539 352.206, 645.792 352.459 C 646.045 352.712, 649.278 364.750, 652.977 379.209 L 659.701 405.500 670.107 405.781 L 680.513 406.063 694.404 354.781 C 702.044 326.577, 708.501 302.938, 708.754 302.250 C 709.093 301.330, 707.471 301, 702.607 301 C 698.973 301, 696 301.160, 696 301.356 C 696 302.165, 680.940 359.622, 680.367 361 C 679.657 362.707, 679.671 362.758, 670.955 326.750 L 664.721 301 655.408 301 L 646.094 301 645.210 304.250 C 644.724 306.038, 641.219 320.004, 637.422 335.287 L 630.518 363.074 623.437 334.787 C 619.542 319.229, 616.042 305.262, 615.659 303.750 L 614.962 301 599.401 301 L 583.841 301 584.456 303.750 M 373 327.600 C 371.625 327.766, 367.012 328.187, 362.750 328.536 L 355 329.171 355 367.585 L 355 406 369 406 L 383 406 383 366.500 L 383 327 379.250 327.150 C 377.188 327.232, 374.375 327.435, 373 327.600 M 486.035 329.202 C 479.746 331.616, 471.396 339.344, 468.105 345.795 C 464.764 352.344, 462.999 360.717, 463.012 369.960 C 463.037 387.688, 468.427 398.131, 480.663 404.155 C 486.602 407.079, 488.268 407.420, 498.514 407.812 C 511.870 408.323, 518.696 406.664, 524.826 401.417 C 529.112 397.749, 532.679 390.571, 533.178 384.614 C 533.494 380.837, 533.414 380.737, 529 379.397 C 526.525 378.645, 524.003 378.024, 523.395 378.015 C 522.758 378.006, 522.026 380.816, 521.669 384.638 C 520.722 394.781, 516.839 399.123, 508.603 399.247 C 503.676 399.322, 499.968 397.406, 497.374 393.448 C 495.225 390.168, 493.035 380.775, 493.016 374.750 L 493 370 513.500 370 C 524.775 370, 534 369.651, 534 369.224 C 534 364.556, 531.469 350.656, 529.814 346.232 C 526.943 338.559, 520.320 331.638, 513.355 329.032 C 505.892 326.240, 493.552 326.317, 486.035 329.202 M 733.164 329.119 C 724.746 331.785, 717.260 338.930, 713.907 347.500 C 711.841 352.780, 711.559 355.180, 711.559 367.500 C 711.559 385.018, 713.367 390.666, 721.535 398.681 C 728.430 405.446, 736.093 408, 749.500 408 C 762.907 408, 770.570 405.446, 777.465 398.681 C 785.633 390.666, 787.441 385.018, 787.441 367.500 C 787.441 355.180, 787.159 352.780, 785.093 347.500 C 781.659 338.725, 774.275 331.783, 765.487 329.069 C 756.461 326.281, 742.055 326.303, 733.164 329.119 M 818.164 329.119 C 809.746 331.785, 802.260 338.930, 798.907 347.500 C 796.841 352.780, 796.559 355.180, 796.559 367.500 C 796.559 385.018, 798.367 390.666, 806.535 398.681 C 813.430 405.446, 821.093 408, 834.500 408 C 847.907 408, 855.570 405.446, 862.465 398.681 C 870.633 390.666, 872.441 385.018, 872.441 367.500 C 872.441 355.180, 872.159 352.780, 870.093 347.500 C 866.659 338.725, 859.275 331.783, 850.487 329.069 C 841.461 326.281, 827.055 326.303, 818.164 329.119 M 389.237 330.250 C 389.486 330.938, 395.496 348.269, 402.594 368.765 L 415.500 406.029 425.917 405.765 L 436.334 405.500 449.104 367.200 L 461.873 328.900 456.744 329.200 L 451.614 329.500 443.544 354.442 L 435.473 379.384 427.521 354.192 L 419.568 329 404.177 329 C 392.290 329, 388.889 329.285, 389.237 330.250 M 746.717 336.202 C 742.593 339.985, 741.735 344.266, 741.251 363.500 C 740.662 386.906, 742.303 396.203, 747.639 399.696 C 749.552 400.948, 750.041 400.854, 752.283 398.798 C 756.407 395.015, 757.265 390.734, 757.749 371.500 C 758.338 348.094, 756.697 338.797, 751.361 335.304 C 749.448 334.052, 748.959 334.146, 746.717 336.202 M 831.717 336.202 C 827.593 339.985, 826.735 344.266, 826.251 363.500 C 825.662 386.906, 827.303 396.203, 832.639 399.696 C 834.552 400.948, 835.041 400.854, 837.283 398.798 C 841.407 395.015, 842.265 390.734, 842.749 371.500 C 843.338 348.094, 841.697 338.797, 836.361 335.304 C 834.448 334.052, 833.959 334.146, 831.717 336.202 M 498.548 336.233 C 495.785 337.779, 493.935 343.545, 493.296 352.602 L 492.703 361 500.851 361 C 506.708 361, 508.998 360.648, 508.992 359.750 C 508.961 354.505, 506.818 341.548, 505.589 339.172 C 503.904 335.914, 501.163 334.769, 498.548 336.233 M 914.306 340.412 L 911.500 342.823 911.183 365.282 C 910.923 383.665, 911.141 388.403, 912.388 391.386 C 914.847 397.270, 920.540 398.155, 923.814 393.163 C 925.201 391.048, 925.561 387.384, 925.842 372.518 C 926.244 351.226, 925.198 343.533, 921.454 340.250 C 918.244 337.435, 917.756 337.446, 914.306 340.412" stroke="none" fill="#fb9b7b" fill-rule="evenodd"/></svg>