<?xml version="1.0" standalone="no"?>
<!DOCTYPE svg PUBLIC "-//W3C//DTD SVG 20010904//EN"
 "http://www.w3.org/TR/2001/REC-SVG-20010904/DTD/svg10.dtd">
<svg version="1.0" xmlns="http://www.w3.org/2000/svg"
 width="7880.000000pt" height="5016.000000pt" viewBox="0 0 7880.000000 5016.000000"
 preserveAspectRatio="xMidYMid meet">

<g transform="translate(0.000000,5016.000000) scale(0.100000,-0.100000)"
fill="#000000" stroke="none">
<path d="M22593 31301 c-10 -10 -30 -21 -44 -24 -14 -4 -183 -7 -375 -7 -377
-1 -443 -8 -476 -52 -13 -18 -29 -23 -85 -26 -42 -3 -71 -9 -76 -18 -4 -7 -14
-11 -23 -7 -9 3 -27 -5 -42 -19 -38 -35 -48 -37 -181 -39 l-119 -1 -36 -39
c-31 -36 -39 -39 -88 -40 -29 -1 -56 -1 -60 0 -5 0 -8 -5 -8 -13 0 -7 -9 -25
-21 -40 -19 -25 -25 -26 -109 -26 l-88 0 -32 -40 c-30 -37 -35 -40 -83 -40
-49 0 -54 -3 -80 -40 -26 -37 -32 -40 -75 -40 -54 0 -60 -3 -91 -47 -20 -30
-27 -33 -75 -33 -51 0 -54 -2 -80 -40 -24 -37 -30 -40 -74 -40 -54 0 -60 -3
-91 -47 -20 -30 -27 -33 -74 -33 -49 0 -54 -3 -80 -39 -21 -31 -36 -41 -67
-46 -32 -5 -56 -22 -112 -75 -39 -38 -83 -74 -97 -80 -14 -6 -33 -23 -42 -39
-12 -20 -32 -34 -67 -45 -27 -9 -58 -26 -68 -37 -11 -12 -32 -28 -49 -36 -16
-9 -42 -30 -58 -49 -15 -18 -36 -35 -46 -39 -10 -3 -23 -16 -29 -29 -6 -13
-24 -32 -41 -42 -16 -9 -34 -27 -40 -40 -5 -12 -23 -30 -40 -40 -16 -9 -34
-27 -40 -40 -5 -12 -24 -30 -40 -40 -17 -10 -33 -26 -36 -35 -7 -22 -113 -127
-135 -134 -9 -3 -22 -16 -28 -29 -6 -13 -24 -32 -41 -42 -16 -9 -34 -27 -40
-40 -5 -12 -23 -30 -40 -40 -16 -9 -34 -27 -40 -40 -5 -12 -23 -30 -40 -40
-16 -9 -35 -28 -42 -41 -7 -13 -28 -35 -46 -49 -29 -22 -33 -31 -33 -70 0 -37
-5 -50 -26 -67 -14 -12 -33 -31 -43 -41 -20 -23 -91 -100 -131 -141 -19 -20
-32 -45 -36 -74 -7 -41 -42 -91 -65 -91 -4 0 -11 -10 -14 -21 -4 -12 -22 -37
-40 -55 -24 -24 -36 -46 -41 -79 -5 -36 -14 -52 -40 -73 -28 -22 -34 -35 -40
-79 -5 -43 -13 -60 -39 -85 -25 -23 -35 -43 -40 -77 -4 -33 -16 -56 -40 -81
-19 -19 -50 -52 -70 -72 -43 -44 -55 -81 -55 -161 0 -53 -3 -62 -31 -88 -36
-33 -49 -74 -49 -151 0 -53 -2 -59 -36 -86 -30 -25 -36 -38 -43 -86 -6 -46
-14 -62 -39 -84 -32 -27 -32 -27 -38 -155 -7 -127 -7 -128 -40 -160 -28 -28
-33 -40 -38 -97 -3 -36 -5 -91 -6 -123 0 -55 -3 -61 -40 -98 l-40 -40 0 -324
0 -323 -25 -30 c-13 -16 -27 -49 -31 -73 -4 -24 -10 -48 -14 -54 -7 -10 -5
-363 2 -422 3 -17 19 -48 37 -69 l33 -37 -2 -286 c-1 -157 -1 -300 -1 -318 1
-24 12 -43 41 -72 35 -35 40 -45 41 -88 0 -26 2 -84 5 -128 4 -74 6 -81 37
-106 31 -26 32 -28 37 -130 3 -72 9 -103 17 -102 6 2 23 -11 37 -28 24 -28 26
-38 26 -120 l0 -90 35 -14 c38 -17 51 -53 43 -122 -6 -48 9 -103 27 -103 28 0
57 -52 54 -100 -3 -67 -2 -69 35 -84 24 -10 37 -24 46 -50 6 -20 9 -40 6 -45
-8 -12 4 -42 14 -36 25 15 77 -95 64 -137 -3 -11 4 -22 23 -32 38 -19 55 -54
57 -113 1 -26 6 -48 11 -49 25 -2 44 -18 61 -50 10 -19 27 -37 37 -40 28 -9
46 -45 48 -101 2 -34 7 -53 15 -53 26 0 55 -37 68 -86 11 -42 26 -64 83 -121
39 -38 73 -78 77 -89 3 -11 19 -27 34 -36 15 -9 34 -28 41 -41 7 -13 25 -31
40 -40 15 -9 33 -27 41 -41 7 -14 16 -26 20 -26 4 0 19 -11 34 -25 21 -19 26
-33 26 -69 0 -43 18 -76 41 -76 17 0 107 -90 119 -120 7 -16 21 -32 32 -36 27
-8 124 -105 132 -132 4 -11 19 -25 34 -31 30 -13 107 -84 135 -125 13 -19 29
-27 68 -32 56 -8 76 -27 85 -86 8 -45 27 -63 79 -73 31 -5 54 -21 112 -81 68
-70 75 -74 127 -80 71 -8 105 -30 155 -97 34 -46 46 -55 81 -61 38 -6 57 -20
98 -70 8 -11 29 -16 60 -16 42 0 50 -4 83 -40 33 -36 42 -40 83 -40 64 0 81
-27 78 -124 -1 -49 1 -66 8 -56 7 10 9 -44 9 -164 -1 -106 -5 -173 -10 -165
-5 8 -8 -214 -8 -526 0 -311 4 -532 9 -520 8 19 9 19 9 -2 1 -12 10 -27 21
-33 28 -15 45 -49 31 -63 -6 -6 -11 -17 -11 -25 0 -8 -8 -25 -19 -38 -24 -30
-34 -99 -22 -142 6 -18 21 -46 35 -63 24 -28 26 -38 27 -127 0 -134 12 -163
69 -180 25 -8 51 -15 58 -18 7 -2 20 -17 30 -34 9 -16 24 -32 33 -35 27 -9
129 -117 129 -136 0 -10 8 -22 18 -27 25 -13 261 -7 275 7 8 8 8 11 0 11 -8 0
-8 7 0 25 13 27 60 42 102 31 31 -8 66 9 59 28 -7 17 21 45 64 63 21 9 32 19
29 28 -9 23 27 45 75 45 50 0 96 29 82 52 -12 19 -13 37 -3 44 5 3 9 12 9 21
0 23 39 63 56 56 8 -3 16 5 19 20 4 13 5 343 3 733 l-3 708 23 23 c22 22 29
23 193 23 l171 0 31 -35 c19 -21 40 -35 54 -35 13 0 22 -3 20 -7 -6 -9 1545
-8 1568 1 9 3 14 10 11 15 -3 5 4 21 16 36 l22 28 140 -6 c157 -6 209 3 214
39 2 12 14 26 28 33 36 16 126 14 150 -4 10 -8 15 -15 10 -15 -5 0 1 -11 14
-25 12 -13 27 -22 31 -19 4 2 15 -6 23 -18 13 -20 15 -130 13 -818 -2 -747 -1
-798 16 -823 9 -15 23 -27 30 -27 7 0 26 -14 42 -30 33 -34 79 -50 148 -50 35
0 51 -5 65 -20 9 -12 28 -31 41 -43 43 -41 56 -54 73 -75 16 -19 28 -22 101
-22 l84 0 24 38 c22 34 28 37 83 42 33 3 61 11 63 17 9 26 46 64 58 59 16 -6
35 13 35 34 0 30 34 50 82 50 56 0 79 22 79 76 0 22 1 154 2 295 2 237 3 259
21 278 11 12 25 21 33 21 10 0 13 27 13 124 0 122 0 124 -24 130 -13 3 -28 18
-34 33 -8 20 -10 201 -8 600 3 583 5 611 40 597 14 -5 50 31 43 43 -3 5 21 35
54 67 l59 59 48 -7 c54 -7 74 6 77 47 1 12 10 26 20 32 17 9 29 21 70 66 17
18 108 42 98 26 -3 -5 0 -7 8 -5 8 3 13 10 12 16 -2 6 12 23 29 37 28 24 39
27 86 23 52 -5 53 -4 67 29 8 18 28 41 44 51 17 9 35 27 40 40 6 13 24 31 40
40 17 9 35 27 40 40 6 13 25 31 41 40 17 9 32 24 35 33 11 33 40 48 100 51 45
2 60 7 61 18 1 8 2 21 3 27 2 20 85 98 119 112 17 7 34 22 38 33 7 23 88 107
127 131 15 10 32 28 36 40 11 28 100 112 129 121 11 4 24 16 27 27 9 28 91
120 129 144 26 17 31 27 33 64 2 44 22 76 53 86 9 3 24 21 33 40 9 20 28 40
42 45 14 5 29 20 34 32 11 27 47 59 62 55 8 -1 13 20 16 56 4 62 16 97 35 97
25 0 47 32 42 59 -8 37 20 101 43 101 24 0 43 19 43 41 0 9 7 22 15 29 8 7 15
21 15 31 0 21 11 24 26 9 7 -7 11 2 12 32 2 46 43 118 67 118 8 0 15 5 15 10
0 16 56 71 64 63 16 -16 24 25 20 90 -6 76 6 120 41 149 11 10 25 16 31 13 7
-2 10 4 7 16 -3 10 -2 40 2 65 5 34 12 48 26 51 10 3 19 10 19 15 0 7 5 6 13
-1 22 -18 26 -2 20 78 -3 42 -1 92 4 111 8 30 13 35 41 35 43 1 48 9 34 61 -8
28 -9 51 -4 58 5 6 12 23 16 37 6 28 42 45 50 25 3 -7 8 -6 15 4 9 13 8 86 -4
199 -2 18 5 54 16 78 17 40 22 44 44 39 17 -4 25 -2 26 6 3 46 -1 164 -6 202
-4 25 -3 46 1 46 5 0 15 13 22 30 7 16 22 32 32 35 10 3 21 13 25 23 3 9 8
183 11 386 3 203 9 376 14 385 6 11 9 12 10 3 0 -9 7 -8 25 5 l26 18 -3 192
c-3 169 -5 192 -20 196 -9 3 -23 19 -32 36 -14 26 -17 87 -20 408 l-5 377 -23
3 c-46 7 -56 36 -54 165 1 65 -1 122 -4 126 -3 4 -17 13 -31 20 -38 20 -48 63
-46 195 l3 118 -32 15 c-37 18 -54 50 -54 104 0 32 -5 42 -30 56 -41 25 -49
54 -47 178 2 111 -5 136 -38 136 -7 0 -18 14 -25 31 -7 16 -28 42 -47 57 -44
33 -52 54 -54 143 -2 62 -4 72 -24 81 -28 12 -50 52 -60 103 -4 24 -19 52 -36
70 -58 59 -109 119 -114 134 -3 9 -19 24 -35 33 -36 21 -51 55 -43 101 5 32 2
37 -27 52 -34 18 -60 66 -60 114 0 21 -6 32 -20 36 -28 9 -60 67 -60 108 0 40
-12 50 -72 61 -58 10 -78 33 -82 90 -2 38 -8 53 -25 65 -43 30 -118 106 -136
139 -11 17 -24 32 -30 32 -16 0 -112 94 -129 129 -9 17 -22 31 -29 31 -18 0
-113 92 -131 129 -9 17 -22 31 -29 31 -17 0 -109 89 -132 128 -11 17 -24 32
-30 32 -14 0 -119 100 -134 127 -8 17 -24 24 -61 29 -50 7 -110 36 -110 54 0
11 -77 88 -155 155 -26 22 -59 52 -74 68 -31 31 -77 47 -139 47 -53 0 -100 23
-112 55 -5 14 -16 25 -23 25 -19 0 -48 34 -50 58 -1 17 -11 20 -75 25 -41 3
-77 8 -80 11 -3 4 -6 20 -7 37 l-1 31 -107 2 -107 1 -35 38 c-19 21 -35 40
-35 43 0 3 -13 18 -29 33 -17 16 -26 32 -21 37 5 5 -19 8 -55 7 -68 -2 -78 4
-89 50 -6 27 -7 27 -92 27 -97 0 -154 18 -154 49 0 22 -31 32 -99 33 -40 0
-68 18 -57 37 3 5 3 16 0 24 -5 13 -34 16 -185 17 -98 0 -186 3 -194 6 -8 4
-15 14 -15 24 0 10 -9 20 -20 23 -11 3 -20 11 -20 17 0 8 8 10 21 7 12 -3 18
-3 14 1 -3 4 -50 5 -104 4 -74 -3 -107 0 -137 13 -35 15 -37 18 -21 29 25 19
21 36 -10 37 -16 0 -210 1 -433 2 -402 2 -492 9 -511 39 -4 6 -14 5 -27 -3
-17 -11 -24 -11 -34 -1 -7 7 -42 12 -90 12 -62 0 -81 -4 -95 -19z m1187 -51
c0 -5 -2 -10 -4 -10 -3 0 -8 5 -11 10 -3 6 -1 10 4 10 6 0 11 -4 11 -10z
m-468 -190 c-2 -8 3 -10 13 -6 9 3 23 0 30 -8 8 -7 25 -11 38 -9 14 3 28 0 31
-6 4 -6 0 -11 -8 -11 -32 0 -15 -19 22 -25 20 -3 58 -10 83 -16 25 -5 80 -9
121 -8 80 2 118 -11 118 -40 0 -10 9 -26 20 -36 18 -16 34 -17 188 -11 l169 7
42 -36 c24 -19 44 -35 44 -36 4 -2 275 -20 300 -20 15 0 27 -4 27 -9 0 -6 9
-10 20 -10 11 0 20 -7 20 -15 0 -8 9 -15 20 -15 13 0 27 -14 40 -40 23 -45 60
-60 152 -60 55 0 59 -2 80 -35 15 -23 38 -41 67 -52 24 -9 57 -28 73 -41 21
-18 46 -27 91 -31 74 -8 80 -11 101 -54 15 -33 17 -34 65 -29 51 5 57 1 103
-56 14 -17 29 -22 63 -22 37 0 51 -5 70 -26 14 -15 25 -30 25 -35 0 -4 8 -10
19 -14 28 -8 131 -115 131 -135 0 -27 24 -41 58 -34 46 9 79 -2 98 -35 10 -16
28 -35 41 -42 13 -7 32 -27 43 -44 13 -21 33 -36 59 -44 22 -6 53 -22 68 -34
15 -13 43 -29 62 -37 24 -10 39 -25 52 -54 21 -48 61 -88 107 -106 18 -7 40
-25 49 -41 9 -15 27 -33 40 -40 13 -7 31 -25 40 -40 9 -15 27 -33 40 -40 13
-7 31 -25 40 -40 9 -15 27 -33 40 -40 13 -7 31 -25 40 -40 9 -14 28 -34 43
-42 15 -9 33 -31 40 -49 18 -45 58 -87 100 -104 19 -8 58 -39 87 -69 51 -52
53 -57 53 -109 0 -50 2 -54 30 -66 39 -16 51 -40 49 -94 -3 -48 14 -78 37 -69
8 3 49 -31 107 -90 80 -81 95 -101 101 -137 3 -23 4 -45 1 -50 -3 -5 8 -16 24
-25 41 -21 53 -47 49 -108 -3 -51 -2 -52 34 -69 39 -18 62 -66 51 -106 -3 -13
5 -25 24 -37 39 -26 51 -44 58 -91 5 -27 18 -52 43 -79 35 -36 37 -41 34 -95
-4 -56 -3 -57 28 -70 43 -18 54 -44 52 -133 0 -64 2 -79 17 -87 10 -5 21 -7
23 -4 3 2 13 -11 22 -30 11 -24 16 -62 16 -133 0 -111 6 -143 26 -143 31 0 54
-61 54 -142 0 -43 4 -78 8 -78 5 0 18 -9 31 -21 17 -16 19 -24 11 -34 -9 -11
-6 -25 9 -61 19 -42 21 -65 20 -194 -1 -92 2 -154 9 -166 11 -18 11 -18 12 1
1 19 2 18 13 -3 7 -12 15 -20 18 -18 3 3 6 -5 6 -17 1 -12 -2 -24 -7 -27 -4
-3 -1 -23 8 -45 15 -35 17 -107 19 -580 3 -545 1 -586 -32 -599 -29 -11 -45
-104 -45 -268 0 -173 -6 -200 -57 -253 l-28 -30 3 -136 c4 -150 9 -133 -58
-191 -17 -15 -20 -30 -20 -103 0 -87 -12 -127 -44 -155 -9 -7 -24 -38 -33 -69
-8 -31 -26 -69 -38 -86 -12 -16 -30 -53 -39 -81 -9 -28 -29 -68 -45 -90 -16
-21 -34 -57 -41 -79 -7 -22 -25 -58 -41 -80 -15 -22 -33 -60 -39 -84 -6 -24
-27 -66 -46 -93 -19 -28 -34 -56 -34 -63 0 -7 -15 -31 -33 -53 -21 -25 -38
-60 -46 -95 -10 -45 -20 -63 -56 -96 -26 -24 -54 -41 -69 -41 -35 0 -47 -21
-40 -72 7 -48 4 -53 -54 -100 -17 -14 -22 -29 -22 -63 0 -45 -15 -70 -54 -92
-9 -5 -24 -33 -34 -63 -13 -43 -22 -56 -40 -58 -12 -2 -19 -8 -16 -14 4 -6 -1
-8 -15 -3 -12 4 -21 2 -21 -4 0 -6 -9 -11 -20 -11 -13 0 -26 -13 -39 -37 -10
-21 -28 -47 -40 -57 -11 -10 -32 -38 -46 -61 -13 -24 -47 -61 -74 -84 -30 -25
-58 -61 -74 -94 -19 -41 -33 -57 -59 -67 -18 -7 -67 -45 -109 -84 -96 -91
-148 -131 -193 -152 -20 -10 -36 -21 -36 -25 0 -7 -104 -115 -146 -150 -10
-10 -28 -28 -40 -40 -11 -13 -29 -31 -40 -40 -10 -10 -29 -28 -40 -43 -18 -21
-27 -24 -57 -19 -51 8 -80 -2 -106 -38 l-23 -31 24 12 23 11 -24 -21 c-13 -11
-31 -18 -38 -16 -8 3 -12 2 -9 -3 8 -13 -61 -71 -84 -71 -10 0 -27 -3 -37 -6
-15 -5 -15 -4 -3 5 11 7 -1 8 -40 4 -81 -8 -96 8 -109 121 -8 63 -8 93 0 102
11 13 6 1323 -6 1414 -3 26 -2 37 3 27 4 -10 6 109 4 265 l-4 283 37 35 c32
30 36 31 25 10 l-13 -25 22 19 c12 11 19 26 17 33 -7 17 112 134 132 131 8 -2
17 3 20 11 3 9 0 11 -9 6 -8 -5 -1 6 15 23 16 18 37 34 47 37 9 3 23 20 30 38
16 41 47 82 62 82 7 0 11 9 10 20 -3 31 17 86 48 130 15 22 31 52 35 68 7 29
60 81 74 72 5 -3 12 5 16 17 4 12 2 24 -3 25 -14 5 3 90 23 121 13 20 18 22
26 11 7 -12 8 -11 6 1 -3 20 20 87 43 125 13 21 19 25 19 13 0 -22 8 -23 31
-2 15 14 17 37 12 264 -4 189 -3 256 7 281 7 19 19 72 25 119 l13 85 2 -75 3
-75 7 75 c4 41 8 112 9 157 1 69 -1 81 -14 77 -11 -5 -15 1 -15 21 0 14 -10
49 -21 76 -20 46 -21 62 -16 180 5 107 3 132 -9 144 -9 8 -22 15 -29 15 -8 0
-22 11 -30 24 -13 19 -15 48 -13 139 3 117 -7 152 -37 141 -25 -10 -45 37 -45
104 0 56 -3 67 -24 83 -13 10 -34 43 -46 71 -14 33 -34 61 -53 73 -17 12 -36
36 -43 57 -7 21 -24 53 -38 71 -14 19 -31 47 -36 64 -6 17 -22 35 -36 42 -14
6 -33 25 -42 41 -9 17 -26 33 -36 36 -10 4 -33 19 -50 34 -99 91 -139 120
-171 126 -23 4 -46 19 -69 45 -18 21 -40 39 -48 39 -8 0 -36 17 -63 37 -46 37
-51 38 -149 44 -70 4 -111 11 -135 24 -29 15 -31 19 -17 27 14 8 15 13 5 24
-8 10 -36 14 -101 14 -92 0 -128 -10 -128 -35 0 -28 -48 -46 -146 -56 -59 -5
-105 -15 -118 -24 -12 -9 -37 -27 -56 -40 -19 -13 -42 -32 -50 -41 -8 -9 -22
-24 -31 -32 -25 -21 -64 -62 -83 -84 -15 -17 -25 -18 -102 -12 -74 6 -87 4
-105 -12 -16 -14 -19 -25 -14 -56 9 -51 0 -73 -39 -98 -24 -14 -36 -30 -40
-55 -4 -19 -17 -47 -30 -62 -13 -15 -33 -47 -45 -70 -12 -24 -25 -43 -29 -43
-5 0 -18 -9 -30 -20 -17 -16 -22 -32 -22 -70 0 -57 -12 -92 -44 -131 -14 -16
-30 -45 -36 -65 -7 -20 -26 -56 -42 -78 -23 -34 -31 -58 -37 -121 -7 -63 -16
-94 -44 -145 l-36 -65 -1 -160 c-1 -137 -4 -165 -20 -197 -18 -34 -19 -55 -15
-265 3 -178 7 -236 19 -265 9 -21 16 -66 16 -105 0 -37 5 -75 10 -83 5 -8 10
-11 10 -5 0 5 12 -8 28 -30 25 -37 27 -49 30 -150 2 -60 6 -117 9 -125 3 -8 5
-19 4 -23 -1 -5 3 -6 8 -3 5 4 20 -8 33 -26 18 -26 23 -46 23 -93 0 -60 9 -90
24 -80 5 2 21 -7 36 -21 24 -22 26 -29 20 -73 -5 -37 -3 -50 9 -60 9 -8 16
-10 16 -7 0 13 59 -35 64 -52 3 -10 19 -25 35 -35 31 -18 58 -78 45 -98 -5 -8
-3 -9 6 -4 10 6 12 4 7 -9 -4 -9 -3 -15 2 -12 12 8 37 -22 58 -69 10 -22 25
-41 33 -42 67 -7 91 -16 114 -44 14 -17 26 -36 26 -42 0 -6 -7 -2 -15 9 -10
11 -8 2 5 -23 11 -24 23 -43 26 -43 2 0 0 10 -6 23 -7 13 0 9 19 -13 34 -40
43 -73 39 -145 -1 -27 -1 -77 1 -110 4 -58 4 -59 11 -20 4 22 6 -75 6 -215 0
-140 -3 -221 -6 -180 -6 64 -14 -896 -15 -1623 0 -207 2 -229 18 -238 15 -9
17 -25 15 -127 -1 -89 -3 -105 -8 -67 l-7 50 -1 -60 c-2 -46 -8 -69 -27 -98
-14 -20 -30 -37 -36 -37 -5 0 -9 -8 -7 -17 2 -12 -3 -18 -14 -17 -10 1 -15 -2
-12 -7 7 -11 13 -11 -194 -9 -150 1 -176 -1 -192 -15 -10 -9 -16 -23 -14 -30
3 -7 -5 -20 -18 -29 -20 -14 -45 -16 -188 -10 -159 6 -166 6 -192 -15 -15 -12
-25 -28 -22 -35 3 -7 -3 -17 -13 -22 -10 -5 -206 -10 -436 -12 -326 -2 -417 0
-411 9 5 9 1 10 -14 7 -12 -4 -22 -2 -22 4 0 6 -6 8 -14 5 -15 -6 -50 25 -40
36 3 3 -4 11 -17 17 -16 9 -84 11 -238 9 -228 -3 -357 10 -347 37 5 12 -49 44
-76 44 -17 0 -66 31 -101 64 -27 25 -28 30 -25 99 2 39 10 93 18 119 12 42 12
54 -1 95 -14 42 -16 182 -13 1193 1 630 6 1173 11 1208 5 34 15 68 21 74 9 9
12 9 12 -3 1 -7 10 3 21 24 11 22 18 45 16 52 -3 7 4 27 15 45 15 26 22 30 29
19 7 -11 9 -9 9 7 0 36 44 57 101 49 41 -6 54 -4 70 11 11 10 17 25 14 34 -4
12 5 22 30 36 19 10 35 22 35 26 0 7 178 187 232 235 7 6 29 37 48 67 34 54
54 70 29 24 -11 -21 -11 -22 5 -9 11 9 15 23 12 36 -9 35 13 93 43 114 16 11
30 18 33 16 2 -2 4 20 4 50 -1 46 3 58 28 84 17 17 36 31 43 31 11 0 13 180
12 1037 0 575 -5 1047 -10 1060 -13 34 -65 63 -98 54 -14 -4 -53 -9 -86 -10
-68 -3 -80 -10 -94 -54 -13 -43 -14 -114 -14 -962 0 -401 0 -809 -1 -906 l-1
-177 -31 -43 c-17 -24 -37 -61 -43 -81 -15 -46 -49 -90 -63 -82 -6 4 -8 2 -5
-3 13 -21 -24 -102 -54 -120 -16 -10 -29 -21 -29 -26 0 -4 -29 -37 -64 -73
l-63 -66 -47 7 c-35 6 -52 3 -71 -9 -14 -9 -23 -21 -21 -25 7 -11 -22 -37 -56
-50 -20 -8 -38 -7 -68 4 -22 8 -46 12 -53 9 -13 -5 -45 23 -46 41 -1 5 -11 10
-24 10 -12 0 -21 5 -20 11 1 7 -17 9 -50 7 -53 -4 -86 11 -91 39 -3 21 -16 37
-39 48 -21 11 -21 11 -3 -4 11 -9 15 -16 8 -16 -6 0 -18 11 -27 23 -13 21 -15
153 -15 1125 0 724 -4 1110 -10 1128 -7 18 -7 30 1 40 11 13 5 44 -23 118 -16
40 -61 56 -157 56 -59 0 -84 -4 -95 -16 -14 -14 -16 -135 -16 -1184 l0 -1169
-34 -26 c-18 -14 -33 -33 -32 -42 0 -9 -15 -24 -37 -36 -21 -11 -45 -31 -54
-44 -9 -13 -32 -32 -52 -43 -20 -10 -61 -34 -90 -55 -40 -26 -61 -34 -75 -29
-12 4 -50 8 -86 10 -94 3 -124 13 -114 38 6 15 -40 56 -62 56 -7 0 -18 9 -24
20 -6 11 -8 20 -4 20 3 0 1 7 -6 15 -7 8 -17 12 -22 9 -13 -8 -48 25 -42 40 6
15 -31 50 -44 42 -12 -7 -43 26 -46 50 -2 9 -10 18 -20 20 -25 3 -45 23 -62
58 -7 17 -23 45 -34 61 -34 51 -40 74 -38 138 2 65 -17 131 -31 109 -5 -8 -15
1 -29 27 l-22 39 0 941 0 942 -27 24 c-16 13 -32 25 -37 25 -5 0 -18 7 -27 16
-17 15 -20 15 -43 0 -14 -9 -39 -16 -56 -16 -16 0 -29 -3 -28 -7 1 -5 -4 -19
-12 -33 -25 -45 -33 -263 -33 -875 0 -675 8 -958 28 -1025 9 -28 15 -95 16
-176 l1 -132 39 -58 c23 -34 37 -64 34 -74 -3 -10 1 -23 10 -30 8 -7 15 -10
15 -6 0 17 50 -29 61 -57 7 -18 27 -51 44 -73 16 -23 38 -55 47 -73 9 -17 28
-35 41 -40 40 -15 84 -59 105 -105 19 -40 24 -44 69 -51 56 -8 89 -26 98 -54
7 -22 63 -45 88 -35 9 3 25 -3 38 -15 15 -13 18 -21 9 -21 -9 0 -5 -9 10 -25
12 -13 26 -22 30 -20 12 8 38 -28 49 -70 8 -28 11 -383 11 -1170 l0 -1130 -33
-22 c-47 -32 -106 -31 -146 3 -17 14 -28 30 -25 35 3 6 -4 8 -18 5 -37 -9
-111 33 -120 69 -5 18 -4 31 2 33 16 6 12 44 -7 64 -11 12 -29 18 -57 17 -31
0 -36 -2 -21 -8 11 -5 28 -18 39 -29 18 -21 18 -21 -20 -11 -22 6 -67 19 -102
31 -55 17 -64 24 -69 49 -7 35 -84 109 -114 109 -20 0 -57 32 -193 165 -33 33
-79 74 -102 90 -23 17 -57 50 -76 75 -34 45 -92 83 -115 75 -14 -5 -27 11 -56
67 -24 48 -114 154 -218 257 -61 61 -120 145 -87 125 8 -5 7 1 -4 16 -9 14
-22 24 -28 22 -20 -5 -41 19 -69 78 -35 73 -36 79 -12 51 12 -13 21 -19 21
-14 0 14 -35 44 -43 37 -9 -9 -28 33 -22 48 3 8 -4 23 -16 34 -22 18 -22 18
-15 0 6 -17 4 -17 -11 -6 -36 27 -123 125 -123 140 0 8 -7 24 -15 34 -15 20
-11 41 6 31 11 -8 12 6 0 24 -5 7 -13 11 -19 7 -10 -6 -52 39 -52 56 0 5 -18
40 -40 77 -22 37 -40 74 -40 83 0 8 -13 32 -29 52 -17 21 -37 58 -46 84 -11
32 -26 53 -48 67 -31 20 -32 23 -35 95 -3 72 -11 95 -34 95 -24 0 -49 69 -45
123 4 58 -7 73 -65 87 -15 4 -30 15 -33 26 -4 10 -12 18 -18 16 -7 -1 -13 11
-15 28 -2 17 -10 52 -19 79 -12 37 -15 74 -11 145 6 123 0 152 -35 169 -43 21
-50 46 -44 143 7 92 -4 149 -29 149 -8 0 -24 15 -35 33 -19 29 -20 43 -16 172
4 132 -9 280 -25 273 -4 -2 -18 11 -30 29 l-24 31 2 554 c2 572 6 634 44 665
13 11 13 14 0 23 -13 9 -9 14 6 8 19 -9 27 49 25 176 -2 123 0 146 20 199 17
44 24 55 29 42 10 -29 33 92 31 162 -2 66 18 123 44 123 21 0 35 64 35 165 0
73 4 96 20 123 13 21 26 32 35 28 22 -8 29 29 26 137 -1 53 1 106 4 117 6 18
30 34 126 85 26 13 33 38 34 117 0 61 3 70 31 100 20 22 35 52 43 88 7 32 24
70 41 91 16 20 32 48 36 63 7 29 61 79 75 70 5 -3 9 6 9 19 0 14 15 47 33 73
19 27 39 66 46 86 7 21 23 46 37 57 15 12 28 37 36 71 9 40 20 58 49 81 21 16
41 38 44 48 3 10 21 27 40 37 19 10 35 23 35 30 0 6 16 33 35 60 34 48 46 54
23 11 -10 -20 -10 -21 6 -8 11 9 15 23 12 36 -10 38 12 93 44 112 17 9 30 21
30 26 0 4 38 46 85 92 47 47 85 89 85 94 0 5 16 18 35 30 19 11 35 27 35 36 0
9 16 25 35 37 20 11 43 34 51 50 8 16 26 33 40 38 13 5 29 21 34 35 5 14 24
34 42 45 18 10 39 32 46 49 7 17 23 32 37 35 16 4 30 19 39 40 10 24 22 35 43
39 20 4 33 15 43 39 12 25 21 33 40 32 14 -1 28 5 33 12 10 17 40 6 33 -12 -8
-22 28 -17 49 6 18 20 18 21 -1 35 -19 14 -18 15 6 35 14 11 35 20 48 20 17 0
22 6 22 28 0 29 22 47 65 54 14 2 19 10 17 24 -4 30 16 42 78 45 62 3 83 14
75 39 -7 23 11 37 63 48 33 8 42 7 42 -3 0 -7 -6 -16 -12 -18 -7 -3 3 -6 23
-6 25 -1 42 6 55 20 10 12 15 24 9 26 -38 14 -44 32 -13 37 7 1 19 5 26 9 6 5
16 6 21 3 14 -9 36 25 33 50 -3 19 2 24 25 29 81 17 88 21 85 43 -2 16 3 23
25 28 15 4 36 7 45 6 10 0 20 3 23 9 4 5 15 9 27 9 13 0 18 5 15 15 -3 7 2 24
12 36 17 22 20 22 110 10 86 -12 94 -12 112 5 l21 19 -21 16 c-33 27 -5 41 76
38 86 -4 105 7 81 46 -17 27 41 58 80 44 15 -6 22 -5 22 4 0 8 3 8 9 -2 6 -8
16 -11 31 -6 15 5 20 4 16 -4 -5 -8 17 -11 72 -11 66 0 82 3 97 20 18 20 18
21 -1 34 -25 19 -15 27 43 33 26 2 59 8 73 13 14 5 38 11 53 15 24 5 27 8 16
21 -15 18 -14 18 41 33 78 21 116 23 130 6 18 -22 102 -20 123 3 17 18 12 35
-13 44 -11 4 -8 9 11 16 31 12 280 19 297 8 7 -4 12 -2 12 5 0 10 3 10 12 1
13 -13 49 -15 85 -6 23 6 38 51 19 57 -20 7 1 19 46 24 24 3 48 10 55 15 8 6
31 6 63 -1 58 -13 1031 -16 1029 -3 -3 16 2 20 19 17 9 -1 16 -8 14 -15z
m1508 -3566 c0 -2 -7 -4 -15 -4 -8 0 -15 4 -15 10 0 5 7 7 15 4 8 -4 15 -8 15
-10z m-105 -300 c75 -29 170 -53 255 -63 69 -9 91 -16 121 -40 20 -17 48 -33
61 -36 30 -8 143 -119 134 -133 -6 -11 28 -45 36 -36 11 11 65 -25 99 -66 19
-22 50 -58 70 -79 20 -21 40 -47 43 -59 4 -12 15 -24 25 -27 36 -11 53 -42 56
-102 4 -89 4 -90 14 -74 6 9 16 -2 35 -42 22 -44 27 -67 25 -119 -2 -63 9
-103 27 -96 5 1 19 -17 32 -42 21 -40 23 -55 19 -135 -6 -94 7 -176 27 -172 7
1 14 -25 19 -68 5 -38 15 -87 23 -108 19 -51 19 -219 -1 -277 -24 -75 -57
-259 -64 -365 -6 -84 -12 -110 -38 -160 -17 -34 -34 -81 -38 -105 -8 -51 -26
-90 -49 -110 -9 -7 -23 -37 -32 -67 -9 -29 -24 -62 -35 -72 -11 -10 -29 -42
-40 -71 -18 -48 -97 -141 -143 -167 -7 -4 -23 -26 -34 -48 -23 -43 -60 -83
-136 -146 -46 -38 -52 -40 -96 -34 -44 6 -120 -13 -120 -30 0 -3 6 -3 13 1 7
5 7 2 -2 -10 -27 -33 -56 -40 -186 -42 -71 -2 -155 -4 -185 -6 -30 -2 -66 2
-80 8 -28 13 -68 54 -54 54 5 0 2 5 -6 10 -8 5 -26 7 -40 4 -15 -4 -20 -2 -13
3 7 5 -16 7 -55 5 -67 -4 -69 -3 -120 38 -29 23 -56 49 -59 58 -3 9 -41 52
-85 94 -45 44 -78 85 -78 96 0 13 -9 22 -26 26 -30 8 -59 66 -50 102 8 30 -2
54 -23 54 -22 0 -57 37 -66 70 -5 19 -4 22 4 10 8 -11 9 -6 5 20 -8 39 -11 45
-26 45 -6 0 -20 12 -31 27 -16 22 -20 43 -21 115 -1 92 -9 118 -32 109 -8 -3
-19 6 -28 22 -15 30 -26 172 -14 172 5 0 6 12 3 28 -3 15 -8 54 -11 87 -7 67
-19 96 -36 92 -6 -1 -17 9 -25 23 -18 35 -17 292 2 340 7 19 14 29 14 22 1 -7
5 -11 10 -8 8 5 18 69 37 231 4 33 6 106 5 162 -2 114 5 136 49 151 29 10 30
14 30 67 0 59 17 104 56 145 12 14 30 43 39 65 27 63 108 186 115 174 9 -13
20 12 20 44 0 24 100 126 129 130 30 5 51 27 51 54 0 16 10 29 30 41 22 13 29
24 28 43 -1 16 10 41 33 68 l34 42 117 -4 c92 -3 122 -1 138 10 20 14 20 16 5
33 -35 39 16 52 90 24z m-3677 -3102 c69 -7 74 -10 120 -55 l47 -47 5 -89 c3
-49 3 -88 0 -86 -8 5 -2 -3002 6 -3155 5 -85 10 -126 15 -110 4 14 7 -29 6
-95 -1 -112 -1 -115 -7 -40 -7 100 -23 -370 -18 -545 5 -199 3 -562 -4 -647
-4 -45 -12 -91 -18 -102 -6 -12 -7 -21 -2 -21 5 0 7 -11 4 -25 -2 -14 0 -25 5
-25 17 0 2 -50 -18 -61 -11 -5 -19 -6 -19 -2 0 4 -5 2 -12 -5 -14 -14 -32 -16
-23 -2 20 32 -87 67 -175 57 -45 -5 -70 24 -70 84 0 59 -21 79 -82 79 -27 0
-62 7 -78 15 -16 8 -34 14 -41 13 -6 -2 -19 13 -30 32 -19 34 -19 60 -14 920
6 1122 6 1149 -1 1665 -4 324 -2 444 7 485 14 64 13 222 -2 295 -6 30 -8 109
-5 200 15 374 17 781 5 837 -10 47 -9 67 4 120 9 35 19 81 22 102 4 26 9 35
15 27 5 -8 12 6 20 40 19 86 20 87 52 111 44 31 115 49 168 42 25 -3 78 -8
118 -12z m3851 -430 c14 -10 26 -24 26 -29 0 -15 61 -64 70 -55 4 4 4 -24 0
-63 -11 -121 -16 -391 -7 -377 15 22 22 -38 22 -173 0 -137 -8 -202 -21 -170
-4 11 -8 -271 -8 -627 -1 -562 1 -649 14 -662 12 -12 15 -42 13 -153 -1 -104
-3 -122 -7 -73 -12 126 -24 -196 -15 -382 8 -156 10 -165 15 -93 6 89 6 89 19
-215 6 -149 14 -228 24 -259 20 -55 20 -136 1 -191 -12 -35 -15 -115 -15 -464
0 -411 -3 -471 -21 -460 -5 3 -9 -4 -9 -16 0 -38 -25 -100 -42 -106 -10 -3
-18 -11 -18 -19 0 -7 -15 -20 -34 -29 -60 -28 -299 -17 -331 15 -8 8 -21 44
-29 79 -8 37 -15 54 -16 40 -2 -19 -4 -15 -10 15 -13 64 -15 1582 -3 1640 l11
50 2 -50 3 -50 7 50 c4 28 8 408 10 845 2 913 0 1159 -9 1110 -15 -75 -21 73
-13 280 l9 205 1 -159 c1 -88 4 -157 6 -155 2 2 6 105 9 229 2 124 1 216 -3
205 -5 -12 -9 21 -9 86 -1 110 6 172 19 164 4 -2 12 7 18 21 l12 25 141 -5
c121 -3 145 -7 168 -24z m448 -649 c-2 -16 -4 -3 -4 27 0 30 2 43 4 28 2 -16
2 -40 0 -55z m-810 -1576 c-1 -128 -2 -20 -2 238 0 259 1 363 2 232 2 -131 2
-343 0 -470z m-2973 -443 c3 -8 2 -12 -4 -9 -6 3 -10 10 -10 16 0 14 7 11 14
-7z m136 -65 c27 -15 -11 -10 -45 6 l-30 14 30 -6 c17 -3 37 -9 45 -14z m-453
-836 c-2 -32 -3 -8 -3 52 0 61 1 87 3 58 2 -29 2 -78 0 -110z m0 -670 c-2 -38
-3 -7 -3 67 0 74 1 105 3 68 2 -38 2 -98 0 -135z m-457 -323 c0 -5 -4 -10 -10
-10 -5 0 -10 5 -10 10 0 6 5 10 10 10 6 0 10 -4 10 -10z m35 -40 c3 -5 1 -10
-4 -10 -6 0 -11 5 -11 10 0 6 2 10 4 10 3 0 8 -4 11 -10z"/>
<path d="M22176 27021 c-10 -11 -15 -25 -11 -30 11 -18 25 -12 35 15 9 23 15
26 43 21 17 -3 41 -9 52 -13 18 -7 18 -6 6 9 -20 25 -102 23 -125 -2z"/>
<path d="M19610 27015 c-10 -12 -9 -15 8 -15 11 0 25 7 32 15 10 12 9 15 -8
15 -11 0 -25 -7 -32 -15z"/>
<path d="M22240 26970 c-19 -11 -39 -21 -45 -24 -6 -2 -3 -11 7 -21 16 -17 17
-17 29 8 7 15 15 27 19 27 3 0 15 7 26 15 27 21 5 17 -36 -5z"/>
<path d="M23392 25310 c0 -14 2 -19 5 -12 2 6 2 18 0 25 -3 6 -5 1 -5 -13z"/>
<path d="M18915 22610 c3 -5 11 -10 16 -10 6 0 7 5 4 10 -3 6 -11 10 -16 10
-6 0 -7 -4 -4 -10z"/>
<path d="M19550 21995 c0 -2 10 -10 23 -16 20 -11 21 -11 8 4 -13 16 -31 23
-31 12z"/>
<path d="M19665 21913 c11 -3 29 -13 40 -23 28 -24 55 -32 55 -16 0 25 -36 46
-76 45 -21 -1 -30 -3 -19 -6z"/>
<path d="M24369 27053 c-13 -16 -12 -17 4 -4 16 13 21 21 13 21 -2 0 -10 -8
-17 -17z"/>
<path d="M24617 26783 c-2 -2 -15 -6 -28 -8 -48 -9 -80 -28 -75 -42 4 -8 6
-19 6 -24 0 -5 7 -9 16 -9 8 0 22 -7 30 -15 9 -8 12 -15 8 -15 -3 0 -2 -6 3
-12 6 -7 9 -21 7 -32 -2 -17 -1 -17 17 2 10 12 19 25 19 31 0 5 6 12 13 14 7
3 5 6 -5 6 -10 1 -18 4 -18 9 0 4 33 6 74 6 l73 -2 -1 39 c0 30 -5 39 -18 39
-9 0 -19 4 -23 10 -5 9 -90 12 -98 3z m10 -50 c-4 -3 -2 -12 4 -19 8 -10 6
-11 -15 -1 -21 10 -23 13 -8 19 23 9 27 9 19 1z"/>
<path d="M24342 26708 c-22 -22 -12 -29 18 -13 17 9 30 18 30 20 0 10 -36 5
-48 -7z"/>
<path d="M24420 26682 c-14 -9 -31 -23 -38 -29 -7 -7 -17 -13 -22 -13 -4 0 -6
-9 -3 -20 3 -11 8 -20 12 -20 12 0 26 15 26 29 0 7 16 18 35 25 19 6 35 17 35
25 0 21 -17 22 -45 3z"/>
<path d="M24480 26670 c0 -5 5 -10 10 -10 6 0 10 5 10 10 0 6 -4 10 -10 10 -5
0 -10 -4 -10 -10z"/>
<path d="M24490 26630 c-8 -5 -11 -10 -6 -10 5 0 3 -6 -3 -14 -9 -11 -8 -15 6
-21 10 -5 21 -7 26 -7 4 1 7 -2 7 -8 0 -5 6 -10 14 -10 8 0 17 -6 19 -12 3 -7
3 3 0 22 -5 32 -28 70 -42 70 -3 0 -13 -5 -21 -10z"/>
<path d="M24365 26589 c-16 -7 -14 -9 12 -6 27 3 30 1 21 -10 -6 -8 -20 -12
-29 -10 -10 3 -20 -1 -23 -8 -4 -10 4 -12 32 -9 33 5 35 4 17 -7 -11 -7 -36
-12 -55 -10 -32 2 -36 0 -36 -22 0 -14 5 -23 11 -21 7 3 10 -7 9 -23 -2 -43
-3 -45 -16 -37 -7 4 -8 3 -4 -5 4 -6 11 -9 16 -6 4 3 10 -2 14 -10 3 -8 12
-15 21 -15 17 0 19 34 6 92 -8 32 -6 36 10 35 22 -1 24 -8 7 -26 -7 -7 -8 -12
-3 -11 21 4 35 0 33 -11 -2 -6 3 -14 11 -17 10 -3 13 1 9 15 -3 11 -1 28 4 37
7 12 5 22 -4 33 -8 10 -8 14 -1 10 7 -4 13 0 15 10 2 11 -6 23 -20 31 -28 14
-30 14 -57 1z"/>
<path d="M24620 26585 c-22 -27 -5 -37 19 -11 19 20 21 26 9 26 -9 0 -21 -7
-28 -15z"/>
<path d="M24538 26523 c7 -3 16 -2 19 1 4 3 -2 6 -13 5 -11 0 -14 -3 -6 -6z"/>
<path d="M24190 26324 c0 -8 -7 -23 -16 -31 -10 -10 -13 -25 -10 -39 5 -20 3
-24 -18 -24 -27 0 -41 -31 -22 -50 8 -8 7 -13 -4 -20 -11 -7 -11 -10 -2 -10
10 0 11 -9 7 -32 -4 -18 -10 -52 -14 -76 -4 -23 -9 -45 -9 -47 -1 -3 -2 -12
-2 -21 0 -11 -6 -15 -18 -12 -10 3 -23 -1 -30 -9 -13 -14 -9 -17 22 -13 11 1
15 -3 12 -9 -4 -6 -13 -11 -21 -11 -7 0 -15 -7 -19 -15 -6 -18 5 -20 22 -3 6
6 15 8 19 4 4 -4 1 -11 -7 -16 -13 -8 -13 -10 -1 -10 11 0 10 -4 -4 -14 -11
-8 -26 -11 -35 -8 -8 3 -12 2 -8 -3 4 -4 22 -11 40 -16 29 -7 27 -8 -12 -4
-25 3 -40 2 -35 -2 6 -5 10 -20 10 -34 -1 -18 3 -25 12 -22 7 3 12 13 11 22
-2 12 5 16 29 15 18 -1 32 1 31 5 -1 3 4 19 10 34 7 16 10 32 7 37 -3 5 3 11
12 13 13 3 11 5 -6 6 -21 1 -22 3 -10 18 10 11 10 14 2 9 -8 -4 -13 -2 -13 4
0 6 -5 8 -12 4 -7 -5 -8 -3 -4 5 5 7 14 10 22 7 11 -4 14 4 14 34 0 25 5 40
13 40 8 0 7 4 -3 10 -12 8 -9 10 12 10 30 0 50 20 21 21 -11 0 -13 3 -5 6 6 2
10 9 6 14 -3 5 4 9 15 9 17 0 19 4 11 30 -8 28 -7 30 12 24 12 -3 18 -2 15 3
-3 5 7 8 23 5 28 -4 29 -3 23 32 -4 26 -2 36 8 36 10 0 10 3 2 11 -6 6 -9 18
-6 25 3 9 -2 14 -13 15 -18 0 -17 1 1 9 13 6 15 9 5 9 -12 1 -12 3 -2 9 9 6 5
12 -13 20 -37 17 -75 15 -75 -4z m47 0 c-3 -3 -12 -4 -19 -1 -8 3 -5 6 6 6 11
1 17 -2 13 -5z m-30 -60 c-3 -3 -12 -4 -19 -1 -8 3 -5 6 6 6 11 1 17 -2 13 -5z"/>
<path d="M24105 26300 c-3 -5 1 -10 10 -10 9 0 13 5 10 10 -3 6 -8 10 -10 10
-2 0 -7 -4 -10 -10z"/>
<path d="M24090 26265 c0 -8 2 -15 4 -15 2 0 6 7 10 15 3 8 1 15 -4 15 -6 0
-10 -7 -10 -15z"/>
<path d="M24265 26140 c3 -5 10 -10 16 -10 5 0 9 5 9 10 0 6 -7 10 -16 10 -8
0 -12 -4 -9 -10z"/>
<path d="M24230 26115 c0 -8 4 -15 10 -15 5 0 7 7 4 15 -4 8 -8 15 -10 15 -2
0 -4 -7 -4 -15z"/>
<path d="M24300 26105 c-6 -15 -13 -32 -17 -38 -4 -6 -1 -7 6 -3 14 9 34 56
27 64 -3 3 -10 -8 -16 -23z"/>
<path d="M24012 26040 c0 -14 2 -19 5 -12 2 6 2 18 0 25 -3 6 -5 1 -5 -13z"/>
<path d="M24172 25970 c-4 -60 21 -65 32 -7 3 19 -1 30 -12 36 -14 8 -17 3
-20 -29z"/>
<path d="M24216 25887 c-9 -22 -15 -44 -13 -50 6 -20 39 41 34 65 -3 21 -5 19
-21 -15z"/>
<path d="M24076 25793 c-4 -9 -2 -20 5 -23 7 -5 4 -9 -8 -12 -11 -3 -20 -13
-20 -23 0 -10 9 -20 20 -23 15 -4 16 -7 5 -14 -9 -6 -6 -8 12 -6 21 3 24 8 27
52 2 32 -1 52 -9 58 -19 11 -25 10 -32 -9z"/>
<path d="M24038 25683 c7 -3 16 -2 19 1 4 3 -2 6 -13 5 -11 0 -14 -3 -6 -6z"/>
<path d="M24067 25673 c-13 -12 -7 -23 22 -37 28 -15 28 -15 27 13 -1 27 -2
27 -23 13 -13 -8 -23 -10 -23 -4 0 6 6 13 13 15 6 3 7 6 1 6 -6 1 -14 -2 -17
-6z"/>
<path d="M24083 25606 c4 -11 1 -13 -11 -9 -14 5 -14 3 3 -17 11 -13 14 -20 8
-16 -7 4 -13 3 -13 -3 0 -5 8 -12 18 -14 12 -3 10 -5 -7 -6 -20 -1 -21 -3 -11
-16 10 -12 10 -15 -4 -15 -9 0 -16 5 -16 11 0 5 -4 7 -10 4 -5 -3 -10 -11 -10
-16 0 -6 5 -7 11 -3 8 4 9 -1 5 -17 -6 -20 -5 -21 4 -6 13 20 35 22 46 5 5 -8
2 -9 -9 -5 -9 3 -19 2 -22 -4 -4 -5 -1 -8 7 -7 7 2 12 -3 11 -9 -2 -7 7 -13
20 -14 l22 0 -23 -10 c-13 -5 -21 -13 -18 -17 3 -5 -6 -7 -19 -4 -26 4 -34
-11 -13 -24 7 -4 8 -3 4 4 -4 7 -3 12 2 12 8 0 21 -42 22 -68 0 -4 -11 -6 -25
-6 -27 1 -30 -3 -16 -25 6 -9 11 -10 15 -2 4 6 19 11 33 11 18 0 24 4 20 14
-5 14 26 33 45 28 4 -1 0 14 -8 33 -9 22 -10 35 -4 35 7 0 7 6 1 18 -5 9 -7
36 -6 60 2 24 -1 42 -7 42 -5 0 -8 7 -4 15 3 8 0 15 -6 15 -6 0 -8 3 -5 7 8 7
-11 33 -25 33 -6 0 -8 -7 -5 -14z"/>
<path d="M24191 25410 c5 -22 14 -72 19 -111 17 -119 29 -117 30 4 0 94 -2
109 -20 127 -30 30 -39 25 -29 -20z"/>
<path d="M24054 25298 c-11 -18 -12 -48 -2 -48 5 0 8 -6 6 -14 -2 -8 1 -16 6
-18 5 -2 10 7 11 20 1 12 -2 22 -7 22 -4 0 0 9 9 20 19 21 39 28 27 8 -4 -7
-3 -8 5 -4 6 4 9 12 6 17 -9 13 -53 11 -61 -3z"/>
<path d="M24044 25192 c0 -9 8 -20 16 -24 11 -5 10 -7 -5 -7 -17 -1 -17 -3 -5
-11 22 -14 30 -12 30 9 0 11 9 23 21 26 27 9 20 14 -23 20 -29 4 -35 1 -34
-13z"/>
<path d="M24180 25169 c0 -5 5 -7 10 -4 6 3 10 8 10 11 0 2 -4 4 -10 4 -5 0
-10 -5 -10 -11z"/>
<path d="M24083 25131 c-3 -12 -10 -21 -15 -21 -5 0 -6 4 -3 10 3 5 0 7 -9 4
-13 -5 -14 -18 -4 -66 6 -26 18 -34 18 -13 0 14 3 16 11 8 6 -6 18 -9 25 -6 8
3 14 0 14 -7 0 -6 -4 -9 -9 -5 -5 3 -12 1 -16 -4 -3 -5 1 -13 8 -18 20 -12 30
-56 11 -49 -17 7 -18 -1 -2 -18 7 -7 20 -11 30 -8 10 2 18 -1 18 -7 0 -7 -4
-10 -9 -7 -4 3 -17 -1 -27 -10 -18 -14 -17 -15 14 -9 24 5 32 3 32 -8 0 -9 3
-22 6 -31 5 -13 -2 -16 -37 -17 -26 -1 -34 -3 -19 -6 14 -2 32 -7 40 -10 8 -3
22 -5 30 -4 9 1 11 -1 5 -6 -14 -11 -17 -33 -5 -33 5 0 14 -9 20 -20 7 -14 7
-20 0 -20 -5 0 -10 7 -10 15 0 9 -6 12 -17 8 -11 -4 -12 -8 -5 -11 7 -2 12
-15 12 -28 0 -13 5 -24 10 -24 6 0 10 -7 10 -15 0 -8 6 -12 14 -9 8 3 23 1 32
-4 16 -9 15 -10 -4 -16 -23 -8 -28 -21 -12 -31 15 -10 12 -23 -7 -28 -10 -3
-3 -5 15 -6 19 -1 31 -5 27 -11 -9 -14 18 -12 34 3 11 10 12 9 6 -3 -7 -13 -6
-13 6 -1 11 10 11 15 2 18 -7 3 -13 11 -13 19 0 8 -4 14 -9 14 -15 0 -23 -18
-11 -23 6 -3 5 -4 -2 -2 -7 1 -12 8 -10 14 1 6 -5 11 -13 11 -8 0 -15 5 -15
10 0 6 10 8 24 4 26 -6 45 11 21 20 -8 3 -12 11 -9 19 3 9 -9 18 -37 26 -46
14 -46 15 -6 25 17 4 26 3 23 -3 -3 -5 1 -12 10 -15 8 -3 12 -2 9 4 -3 6 4 10
17 10 18 0 20 2 8 9 -8 6 -18 7 -22 5 -4 -3 -5 3 -1 13 6 16 5 16 -10 4 -10
-8 -20 -11 -24 -7 -3 3 -1 6 5 6 7 0 12 8 12 18 0 9 7 30 15 46 8 15 15 39 15
52 0 28 -35 63 -72 71 -15 3 -26 10 -25 17 1 6 -11 11 -30 10 -33 -1 -37 21
-5 29 10 2 5 4 -9 3 -16 -1 -26 3 -26 11 0 9 9 13 26 10 14 -2 20 -2 14 0 -7
3 -13 9 -13 15 0 6 -3 8 -7 5 -3 -4 -12 1 -20 11 -8 9 -12 11 -8 5 9 -18 -11
-16 -29 3 -21 21 -20 22 9 16 15 -2 25 0 25 7 0 6 -4 11 -10 11 -5 0 -10 6
-10 14 0 24 -21 30 -27 7z m101 -175 c-3 -8 2 -16 13 -19 15 -4 15 -5 -3 -6
-20 -1 -39 30 -27 43 10 10 22 -4 17 -18z m39 -53 c-7 -2 -21 -2 -30 0 -10 3
-4 5 12 5 17 0 24 -2 18 -5z"/>
<path d="M24150 25140 c0 -6 -4 -9 -9 -5 -17 10 -19 -10 -3 -25 9 -8 18 -14
19 -12 10 8 33 0 27 -10 -4 -7 -3 -8 4 -4 19 12 14 33 -13 50 -15 10 -25 12
-25 6z"/>
<path d="M24274 25014 c3 -9 9 -28 13 -42 3 -15 13 -36 21 -47 13 -18 14 -16
8 24 -4 24 -11 52 -17 62 -12 23 -34 25 -25 3z"/>
<path d="M24062 24968 c1 -21 5 -38 10 -38 10 0 9 29 -2 55 -6 16 -8 12 -8
-17z"/>
<path d="M24025 24930 c3 -5 8 -10 11 -10 2 0 4 5 4 10 0 6 -5 10 -11 10 -5 0
-7 -4 -4 -10z"/>
<path d="M24095 24930 c3 -5 8 -10 11 -10 2 0 4 5 4 10 0 6 -5 10 -11 10 -5 0
-7 -4 -4 -10z"/>
<path d="M24380 24772 c6 -13 14 -21 18 -18 3 4 -2 14 -12 24 -18 16 -18 16
-6 -6z"/>
<path d="M24333 24746 c5 -11 1 -16 -13 -16 -11 0 -20 -5 -20 -11 0 -6 9 -8
20 -4 15 5 22 1 28 -14 5 -14 11 -18 21 -12 11 7 11 13 0 37 -15 30 -47 49
-36 20z"/>
<path d="M24310 24690 c0 -5 5 -10 10 -10 6 0 10 5 10 10 0 6 -4 10 -10 10 -5
0 -10 -4 -10 -10z"/>
<path d="M24445 24663 c15 -32 25 -42 25 -24 0 5 -9 19 -20 32 l-21 24 16 -32z"/>
<path d="M24347 24597 c3 -5 20 -7 37 -4 17 3 25 3 19 0 -19 -7 -16 -36 2 -29
11 4 15 -2 15 -24 0 -16 5 -32 10 -35 7 -4 7 -12 0 -25 -8 -15 -5 -25 16 -47
18 -19 27 -24 31 -15 4 10 10 10 29 -3 14 -9 28 -13 33 -11 5 3 9 0 8 -7 -1
-41 15 -59 58 -62 6 0 10 -11 10 -24 1 -47 22 -32 23 16 1 31 -1 43 -7 34 -7
-11 -10 -9 -16 8 -3 11 -18 35 -32 51 l-25 30 23 0 c21 0 18 4 -16 27 -22 14
-62 49 -90 77 -44 44 -55 51 -92 51 -23 0 -39 -3 -36 -8z"/>
<path d="M24342 24570 c-18 -4 -43 -5 -55 -3 -17 4 -14 -1 13 -21 28 -22 36
-24 38 -11 2 8 9 15 17 15 7 0 15 7 19 15 3 8 4 15 3 14 -1 -1 -17 -5 -35 -9z"/>
<path d="M24520 24557 c0 -3 12 -12 26 -22 15 -9 23 -12 20 -6 -7 11 -46 35
-46 28z"/>
<path d="M24600 24481 c0 -5 7 -12 16 -15 14 -5 15 -4 4 9 -14 17 -20 19 -20
6z"/>
<path d="M20663 21185 c0 -22 2 -30 4 -17 2 12 2 30 0 40 -3 9 -5 -1 -4 -23z"/>
<path d="M21151 19065 c-13 -13 -19 -25 -13 -29 5 -3 17 6 27 20 22 33 16 37
-14 9z"/>
<path d="M24993 20465 c0 -22 2 -30 4 -17 2 12 2 30 0 40 -3 9 -5 -1 -4 -23z"/>
<path d="M56330 26341 c0 -6 4 -13 10 -16 6 -3 7 1 4 9 -7 18 -14 21 -14 7z"/>
<path d="M56351 26256 c-8 -9 -8 -16 -2 -20 6 -4 15 3 21 14 12 23 -2 27 -19
6z"/>
<path d="M56303 26098 c1 -7 -6 -12 -15 -10 -10 2 -18 -1 -18 -7 0 -5 -8 -11
-17 -14 -17 -4 -17 -5 -1 -11 10 -5 25 0 42 15 27 23 33 39 16 39 -5 0 -9 -6
-7 -12z"/>
<path d="M45560 25700 c-12 -7 -12 -12 -3 -21 10 -10 14 -9 19 5 8 22 2 27
-16 16z"/>
<path d="M29933 25560 c0 -25 2 -35 4 -22 2 12 2 32 0 45 -2 12 -4 2 -4 -23z"/>
<path d="M56535 25550 c3 -5 8 -10 11 -10 2 0 4 5 4 10 0 6 -5 10 -11 10 -5 0
-7 -4 -4 -10z"/>
<path d="M40461 25044 c0 -11 3 -14 6 -6 3 7 2 16 -1 19 -3 4 -6 -2 -5 -13z"/>
<path d="M56251 24754 c0 -11 3 -14 6 -6 3 7 2 16 -1 19 -3 4 -6 -2 -5 -13z"/>
<path d="M40550 24629 c0 -5 5 -7 10 -4 6 3 10 8 10 11 0 2 -4 4 -10 4 -5 0
-10 -5 -10 -11z"/>
<path d="M56253 24185 c0 -27 2 -38 4 -22 2 15 2 37 0 50 -2 12 -4 0 -4 -28z"/>
<path d="M56275 24080 c3 -5 8 -10 11 -10 2 0 4 5 4 10 0 6 -5 10 -11 10 -5 0
-7 -4 -4 -10z"/>
<path d="M40580 23770 c0 -5 5 -10 10 -10 6 0 10 5 10 10 0 6 -4 10 -10 10 -5
0 -10 -4 -10 -10z"/>
<path d="M43611 23624 c0 -11 3 -14 6 -6 3 7 2 16 -1 19 -3 4 -6 -2 -5 -13z"/>
<path d="M37129 23537 c-14 -32 -7 -44 20 -31 18 8 18 12 6 34 l-13 25 -13
-28z"/>
<path d="M35770 23516 c0 -9 5 -16 10 -16 6 0 10 4 10 9 0 6 -4 13 -10 16 -5
3 -10 -1 -10 -9z"/>
<path d="M52731 23404 c0 -11 3 -14 6 -6 3 7 2 16 -1 19 -3 4 -6 -2 -5 -13z"/>
<path d="M31430 23381 c0 -14 29 -41 45 -41 18 0 26 13 17 26 -9 15 -62 27
-62 15z"/>
<path d="M56352 23250 c0 -14 2 -19 5 -12 2 6 2 18 0 25 -3 6 -5 1 -5 -13z"/>
<path d="M37360 23240 c0 -5 5 -10 10 -10 6 0 10 5 10 10 0 6 -4 10 -10 10 -5
0 -10 -4 -10 -10z"/>
<path d="M30020 23195 c0 -8 5 -15 10 -15 6 0 10 7 10 15 0 8 -4 15 -10 15 -5
0 -10 -7 -10 -15z"/>
<path d="M43771 23134 c0 -11 3 -14 6 -6 3 7 2 16 -1 19 -3 4 -6 -2 -5 -13z"/>
<path d="M56290 23031 c0 -26 15 -35 17 -11 1 11 -2 22 -8 25 -5 4 -9 -3 -9
-14z"/>
<path d="M40988 22968 c-16 -5 -28 -16 -28 -24 0 -21 14 -17 40 11 13 14 22
25 19 24 -2 0 -16 -5 -31 -11z"/>
<path d="M35420 22915 c0 -8 4 -15 10 -15 5 0 7 7 4 15 -4 8 -8 15 -10 15 -2
0 -4 -7 -4 -15z"/>
<path d="M49460 22891 c0 -6 4 -13 10 -16 6 -3 7 1 4 9 -7 18 -14 21 -14 7z"/>
<path d="M53140 22886 c0 -9 5 -16 10 -16 6 0 10 4 10 9 0 6 -4 13 -10 16 -5
3 -10 -1 -10 -9z"/>
<path d="M46896 22832 c-3 -5 3 -17 14 -27 23 -21 26 -9 6 18 -8 10 -17 14
-20 9z"/>
<path d="M50570 22832 c0 -9 38 -52 46 -52 3 0 -3 14 -13 30 -16 29 -33 39
-33 22z"/>
<path d="M40812 22660 c0 -14 2 -19 5 -12 2 6 2 18 0 25 -3 6 -5 1 -5 -13z"/>
<path d="M50592 22628 c-13 -13 -16 -48 -4 -48 11 0 31 49 23 55 -4 2 -13 -1
-19 -7z"/>
<path d="M46900 22605 c0 -14 5 -25 10 -25 6 0 10 4 10 9 0 5 3 16 6 25 4 11
1 16 -10 16 -10 0 -16 -9 -16 -25z"/>
<path d="M53852 22510 c0 -14 2 -19 5 -12 2 6 2 18 0 25 -3 6 -5 1 -5 -13z"/>
<path d="M30162 22401 c2 -7 7 -12 11 -12 12 1 9 15 -3 20 -7 2 -11 -2 -8 -8z"/>
<path d="M44013 22310 c0 -25 2 -35 4 -22 2 12 2 32 0 45 -2 12 -4 2 -4 -23z"/>
<path d="M44538 22233 c-28 -7 -21 -21 7 -15 14 2 25 8 25 13 0 9 -4 10 -32 2z"/>
<path d="M33580 22190 c-12 -8 -11 -10 7 -10 12 0 25 5 28 10 8 13 -15 13 -35
0z"/>
<path d="M31292 22165 c0 -16 2 -22 5 -12 2 9 2 23 0 30 -3 6 -5 -1 -5 -18z"/>
<path d="M50860 22047 c0 -14 5 -29 10 -32 7 -4 8 3 4 22 -9 38 -14 42 -14 10z"/>
<path d="M41500 21991 c0 -6 4 -13 10 -16 6 -3 7 1 4 9 -7 18 -14 21 -14 7z"/>
<path d="M41146 21931 c-4 -5 -2 -12 3 -15 5 -4 12 -2 15 3 4 5 2 12 -3 15 -5
4 -12 2 -15 -3z"/>
<path d="M41131 21714 c0 -11 3 -14 6 -6 3 7 2 16 -1 19 -3 4 -6 -2 -5 -13z"/>
<path d="M51738 21623 c7 -3 16 -2 19 1 4 3 -2 6 -13 5 -11 0 -14 -3 -6 -6z"/>
<path d="M41372 21055 c0 -16 2 -22 5 -12 2 9 2 23 0 30 -3 6 -5 -1 -5 -18z"/>
<path d="M20333 20920 c0 -30 2 -43 4 -27 2 15 2 39 0 55 -2 15 -4 2 -4 -28z"/>
</g>
</svg>
